<svg width="24" height="18" viewBox="0 0 24 18" fill="none" xmlns="http://www.w3.org/2000/svg">
<path fill-rule="evenodd" clip-rule="evenodd" d="M18.5138 4.90737C18.2937 4.70894 18.0653 4.51677 17.8289 4.33264L15.6999 6.49309C15.4263 6.07266 15.085 5.7016 14.6917 5.39588L16.575 3.4847C15.2572 2.72264 13.7401 2.23646 12.0359 2.24915C9.41222 2.26868 7.22161 3.43686 5.51673 4.95802C4.02855 6.28585 2.95905 7.84205 2.35825 9C2.95905 10.158 4.02855 11.7142 5.51673 13.042C5.80629 13.3003 6.10986 13.5485 6.42719 13.7826L8.47797 11.7015C8.77925 12.1006 9.14494 12.4469 9.55926 12.7245L7.70905 14.6021C8.98031 15.2948 10.4266 15.7389 12.0359 15.7509C14.6501 15.7703 16.8239 14.6159 18.5138 13.0926C19.9974 11.7553 21.0584 10.1752 21.6494 9C21.0584 7.82484 19.9974 6.24472 18.5138 4.90737ZM23.7731 9.71421C24.0092 9.39923 24.074 8.967 23.9057 8.57917C23.2724 7.1203 21.9483 4.99518 19.9856 3.22602C19.7991 3.05793 19.6063 2.89257 19.4072 2.73095L20.0135 2.11573C20.302 1.82297 20.3019 1.34833 20.0134 1.05559C19.7249 0.762842 19.2572 0.76285 18.9687 1.05561L18.189 1.84685C16.4823 0.748423 14.4158 -0.0175374 12.0197 0.0003053C8.71775 0.0248929 6.03406 1.50183 4.05333 3.26913C2.08163 5.02837 0.743305 7.12806 0.0993465 8.56774C-0.0773934 8.96287 -0.0101858 9.40732 0.236462 9.72681C0.923418 11.1487 2.21226 13.0882 4.05333 14.7309C4.3055 14.9559 4.56907 15.1762 4.84386 15.3894L4.1568 16.0866C3.86831 16.3793 3.86832 16.854 4.15682 17.1467C4.44532 17.4395 4.91306 17.4395 5.20155 17.1467L6.08532 16.2499C7.74922 17.2714 9.73666 17.9827 12.0197 17.9997C15.3311 18.0244 18.0131 16.552 19.9856 14.774C21.8204 13.1201 23.0971 11.1551 23.7731 9.71421ZM11.025 11.2372L9.55926 12.7245C10.259 13.1934 11.0974 13.4664 11.9986 13.4664C14.4466 13.4664 16.431 11.4526 16.431 8.96857C16.431 8.05397 16.162 7.20313 15.6999 6.49309L14.2342 7.98046C14.0316 7.50909 13.6884 7.1142 13.2585 6.8503L14.6917 5.39588C13.9452 4.81559 13.0116 4.47077 11.9986 4.47077C9.55067 4.47077 7.56622 6.4845 7.56622 8.96857C7.56622 9.99655 7.90607 10.944 8.47797 11.7015L9.9112 10.2471C10.1713 10.6834 10.5604 11.0316 11.025 11.2372ZM11.025 11.2372L11.0283 11.2338C10.5635 11.0287 10.174 10.6807 9.91376 10.2445L9.9112 10.2471C9.6888 9.87397 9.5608 9.43644 9.5608 8.96857C9.5608 7.60233 10.6522 6.49478 11.9986 6.49478C12.4597 6.49478 12.8908 6.62465 13.2585 6.8503L13.2582 6.85059C13.6881 7.11467 14.031 7.50985 14.2332 7.98151L14.2342 7.98046C14.3643 8.28311 14.4364 8.61729 14.4364 8.96857C14.4364 10.3348 13.345 11.4424 11.9986 11.4424C11.6525 11.4424 11.3232 11.3692 11.025 11.2372Z" fill="#212135"/>
</svg>
