<svg width="24" height="18" viewBox="0 0 24 18" fill="none" xmlns="http://www.w3.org/2000/svg">
<path fill-rule="evenodd" clip-rule="evenodd" d="M18.5138 4.90737C16.8239 3.38407 14.6501 2.22968 12.0359 2.24915C9.41222 2.26868 7.22161 3.43686 5.51673 4.95802C4.02855 6.28585 2.95905 7.84205 2.35825 9C2.95905 10.158 4.02855 11.7142 5.51673 13.042C7.22161 14.5631 9.41222 15.7313 12.0359 15.7509C14.6501 15.7703 16.8239 14.6159 18.5138 13.0926C19.9974 11.7553 21.0584 10.1752 21.6494 9C21.0584 7.82484 19.9974 6.24472 18.5138 4.90737ZM0.0993465 8.56774C-0.0773934 8.96287 -0.0101858 9.40732 0.236462 9.72681C0.923418 11.1487 2.21226 13.0882 4.05333 14.7309C6.03406 16.4982 8.71775 17.9751 12.0197 17.9997C15.3311 18.0244 18.0131 16.552 19.9856 14.774C21.8204 13.1201 23.0971 11.1551 23.7731 9.71421C24.0092 9.39923 24.074 8.967 23.9057 8.57917C23.2724 7.1203 21.9483 4.99518 19.9856 3.22602C18.0131 1.44799 15.3311 -0.0243533 12.0197 0.0003053C8.71775 0.0248929 6.03406 1.50183 4.05333 3.26913C2.08163 5.02837 0.743305 7.12806 0.0993465 8.56774ZM14.4368 8.96779C14.4368 10.334 13.3453 11.4416 11.9989 11.4416C10.6526 11.4416 9.5611 10.334 9.5611 8.96779C9.5611 7.60155 10.6526 6.494 11.9989 6.494C13.3453 6.494 14.4368 7.60155 14.4368 8.96779ZM16.4313 8.96779C16.4313 11.4519 14.4469 13.4656 11.9989 13.4656C9.55098 13.4656 7.56652 11.4519 7.56652 8.96779C7.56652 6.48372 9.55098 4.46999 11.9989 4.46999C14.4469 4.46999 16.4313 6.48372 16.4313 8.96779Z" fill="#212135"/>
</svg>
