<svg width="20" height="20" viewBox="0 0 20 20" fill="none" xmlns="http://www.w3.org/2000/svg">
<path opacity="0.25" d="M19.25 10C19.25 12.0416 19.1396 13.6311 18.8634 14.8739C18.5891 16.1083 18.1613 16.9543 17.5578 17.5578C16.9543 18.1613 16.1083 18.5891 14.8739 18.8634C13.6311 19.1396 12.0416 19.25 10 19.25C7.95837 19.25 6.36893 19.1396 5.12607 18.8634C3.89173 18.5891 3.04567 18.1613 2.44221 17.5578C1.83874 16.9543 1.41091 16.1083 1.13659 14.8739C0.860374 13.6311 0.75 12.0416 0.75 10C0.75 7.95837 0.860374 6.36893 1.13659 5.12607C1.41091 3.89173 1.83874 3.04567 2.44221 2.44221C3.04567 1.83874 3.89173 1.41091 5.12607 1.13659C6.36893 0.860374 7.95837 0.75 10 0.75C12.0416 0.75 13.6311 0.860374 14.8739 1.13659C16.1083 1.41091 16.9543 1.83874 17.5578 2.44221C18.1613 3.04567 18.5891 3.89173 18.8634 5.12607C19.1396 6.36893 19.25 7.95837 19.25 10Z" stroke="#5920BC" stroke-width="1.5" stroke-linecap="round" stroke-linejoin="round"/>
<path opacity="0.25" d="M11.6666 6.66669L8.33331 10L11.6666 13.3334" stroke="#5920BC" stroke-width="1.5" stroke-linecap="round" stroke-linejoin="round"/>
</svg>
