<svg width="20" height="20" viewBox="0 0 20 20" fill="none" xmlns="http://www.w3.org/2000/svg">
<path d="M0.75 10C0.75 12.0416 0.860374 13.6311 1.13659 14.8739C1.41091 16.1083 1.83874 16.9543 2.44221 17.5578C3.04567 18.1613 3.89172 18.5891 5.12607 18.8634C6.36893 19.1396 7.95837 19.25 10 19.25C12.0416 19.25 13.6311 19.1396 14.8739 18.8634C16.1083 18.5891 16.9543 18.1613 17.5578 17.5578C18.1613 16.9543 18.5891 16.1083 18.8634 14.8739C19.1396 13.6311 19.25 12.0416 19.25 10C19.25 7.95837 19.1396 6.36893 18.8634 5.12607C18.5891 3.89173 18.1613 3.04567 17.5578 2.44221C16.9543 1.83874 16.1083 1.41091 14.8739 1.13659C13.6311 0.860374 12.0416 0.75 10 0.75C7.95837 0.75 6.36893 0.860374 5.12607 1.13659C3.89172 1.41091 3.04567 1.83874 2.44221 2.44221C1.83874 3.04567 1.41091 3.89173 1.13659 5.12607C0.860374 6.36893 0.75 7.95837 0.75 10Z" stroke="#5920BC" stroke-width="1.5" stroke-linecap="round" stroke-linejoin="round"/>
<path d="M8.33335 6.66669L11.6667 10L8.33335 13.3334" stroke="#5920BC" stroke-width="1.5" stroke-linecap="round" stroke-linejoin="round"/>
</svg>
