<svg width="20" height="12" viewBox="0 0 20 12" fill="none" xmlns="http://www.w3.org/2000/svg">
<path d="M1.46546 5.23807C1.15061 5.58542 1.15061 6.08128 1.46546 6.42863C2.97569 8.09479 6.12747 10.9167 10 10.9167C13.8725 10.9167 17.0243 8.09479 18.5345 6.42864C18.8494 6.08128 18.8494 5.58542 18.5345 5.23807C17.0243 3.57192 13.8725 0.75002 10 0.75002C6.12747 0.75002 2.97569 3.57192 1.46546 5.23807Z" stroke="#222222" stroke-width="1.5" stroke-linecap="round" stroke-linejoin="round"/>
<path d="M8.25 5.83331C8.25 6.79981 9.0335 7.58331 10 7.58331C10.9665 7.58331 11.75 6.79981 11.75 5.83331C11.75 4.86681 10.9665 4.08331 10 4.08331C9.0335 4.08331 8.25 4.86681 8.25 5.83331Z" stroke="#222222" stroke-width="1.5"/>
</svg>
