<svg width="15" height="16" viewBox="0 0 15 16" fill="none" xmlns="http://www.w3.org/2000/svg">
<mask id="path-1-inside-1_178_4016" fill="white">
<path fill-rule="evenodd" clip-rule="evenodd" d="M2.36842 1.44678H12.6316C13.9396 1.44678 15 2.47557 15 3.74465V13.7021C15 14.9712 13.9396 16 12.6316 16H2.36842C1.06038 16 0 14.9712 0 13.7021V3.74465C0 2.47557 1.06038 1.44678 2.36842 1.44678ZM12.6319 2.97852H2.36874C1.93273 2.97852 1.57927 3.32145 1.57927 3.74447V13.7019C1.57927 14.1249 1.93273 14.4679 2.36874 14.4679H12.6319C13.0679 14.4679 13.4214 14.1249 13.4214 13.7019V3.74447C13.4214 3.32145 13.0679 2.97852 12.6319 2.97852Z"/>
</mask>
<path fill-rule="evenodd" clip-rule="evenodd" d="M2.36842 1.44678H12.6316C13.9396 1.44678 15 2.47557 15 3.74465V13.7021C15 14.9712 13.9396 16 12.6316 16H2.36842C1.06038 16 0 14.9712 0 13.7021V3.74465C0 2.47557 1.06038 1.44678 2.36842 1.44678ZM12.6319 2.97852H2.36874C1.93273 2.97852 1.57927 3.32145 1.57927 3.74447V13.7019C1.57927 14.1249 1.93273 14.4679 2.36874 14.4679H12.6319C13.0679 14.4679 13.4214 14.1249 13.4214 13.7019V3.74447C13.4214 3.32145 13.0679 2.97852 12.6319 2.97852Z" fill="#5920BC"/>
<path d="M12.6316 1.24678H2.36842V1.64678H12.6316V1.24678ZM15.2 3.74465C15.2 2.35945 14.0443 1.24678 12.6316 1.24678V1.64678C13.8349 1.64678 14.8 2.59168 14.8 3.74465H15.2ZM15.2 13.7021V3.74465H14.8V13.7021H15.2ZM12.6316 16.2C14.0443 16.2 15.2 15.0873 15.2 13.7021H14.8C14.8 14.8551 13.8349 15.8 12.6316 15.8V16.2ZM2.36842 16.2H12.6316V15.8H2.36842V16.2ZM-0.2 13.7021C-0.2 15.0873 0.955665 16.2 2.36842 16.2V15.8C1.16509 15.8 0.2 14.8551 0.2 13.7021H-0.2ZM-0.2 3.74465V13.7021H0.2V3.74465H-0.2ZM2.36842 1.24678C0.955665 1.24678 -0.2 2.35945 -0.2 3.74465H0.2C0.2 2.59168 1.16509 1.64678 2.36842 1.64678V1.24678ZM2.36874 3.17852H12.6319V2.77852H2.36874V3.17852ZM1.77927 3.74447C1.77927 3.43756 2.03744 3.17852 2.36874 3.17852V2.77852C1.82802 2.77852 1.37927 3.20533 1.37927 3.74447H1.77927ZM1.77927 13.7019V3.74447H1.37927V13.7019H1.77927ZM2.36874 14.2679C2.03744 14.2679 1.77927 14.0088 1.77927 13.7019H1.37927C1.37927 14.2411 1.82802 14.6679 2.36874 14.6679V14.2679ZM12.6319 14.2679H2.36874V14.6679H12.6319V14.2679ZM13.2214 13.7019C13.2214 14.0088 12.9632 14.2679 12.6319 14.2679V14.6679C13.1726 14.6679 13.6214 14.2411 13.6214 13.7019H13.2214ZM13.2214 3.74447V13.7019H13.6214V3.74447H13.2214ZM12.6319 3.17852C12.9632 3.17852 13.2214 3.43756 13.2214 3.74447H13.6214C13.6214 3.20533 13.1726 2.77852 12.6319 2.77852V3.17852Z" fill="white" mask="url(#path-1-inside-1_178_4016)"/>
<path d="M10.4828 0.1C10.8378 0.1 11.1266 0.358095 11.1674 0.685658L11.1723 0.768928V3.65957C11.1723 4.02454 10.8665 4.32553 10.4828 4.32553C10.1278 4.32553 9.83902 4.06744 9.79831 3.73987L9.79336 3.6566V0.765957C9.79336 0.400988 10.0992 0.1 10.4828 0.1Z" fill="#5920BC" stroke="white" stroke-width="0.2"/>
<path d="M4.51799 0.1C4.87298 0.1 5.16181 0.358095 5.20251 0.685658L5.20746 0.768928V3.65957C5.20746 4.02454 4.90165 4.32553 4.51799 4.32553C4.163 4.32553 3.87417 4.06744 3.83347 3.73987L3.82852 3.6566V0.765957C3.82852 0.400988 4.13433 0.1 4.51799 0.1Z" fill="#5920BC" stroke="white" stroke-width="0.2"/>
<path d="M14.2105 5.88711C14.5942 5.88711 14.9 6.1881 14.9 6.55307C14.9 6.89115 14.6378 7.17413 14.2941 7.21419L14.2077 7.21902H0.789474C0.405816 7.21902 0.1 6.91804 0.1 6.55307C0.1 6.21499 0.362179 5.932 0.705896 5.89194L0.79227 5.88711H14.2105Z" fill="#5920BC" stroke="white" stroke-width="0.2"/>
</svg>
