<svg width="18" height="18" viewBox="0 0 18 18" fill="none" xmlns="http://www.w3.org/2000/svg">
<path fill-rule="evenodd" clip-rule="evenodd" d="M12.5303 7.28033C12.8232 6.98744 12.8232 6.51256 12.5303 6.21967C12.2374 5.92678 11.7626 5.92678 11.4697 6.21967L8.25 9.43934L6.90533 8.09467C6.61244 7.80178 6.13756 7.80178 5.84467 8.09467C5.55178 8.38756 5.55178 8.86244 5.84467 9.15533L7.71967 11.0303C8.01256 11.3232 8.48744 11.3232 8.78033 11.0303L12.5303 7.28033Z" fill="#222222"/>
<path d="M0.75 9C0.75 10.8358 0.849343 12.2598 1.09615 13.3703C1.34105 14.4723 1.72108 15.219 2.25102 15.749C2.78095 16.2789 3.52774 16.6589 4.62973 16.9039C5.74025 17.1507 7.16424 17.25 9 17.25C10.8358 17.25 12.2598 17.1507 13.3703 16.9039C14.4723 16.6589 15.219 16.2789 15.749 15.749C16.2789 15.219 16.6589 14.4723 16.9039 13.3703C17.1507 12.2598 17.25 10.8358 17.25 9C17.25 7.16424 17.1507 5.74025 16.9039 4.62974C16.6589 3.52774 16.2789 2.78095 15.749 2.25102C15.219 1.72108 14.4723 1.34105 13.3703 1.09615C12.2598 0.849342 10.8358 0.75 9 0.75C7.16424 0.75 5.74025 0.849342 4.62973 1.09615C3.52774 1.34105 2.78095 1.72108 2.25102 2.25102C1.72108 2.78095 1.34105 3.52774 1.09615 4.62973C0.849343 5.74025 0.75 7.16424 0.75 9Z" stroke="#222222" stroke-width="1.5" stroke-linecap="round" stroke-linejoin="round"/>
</svg>
