<svg width="542" height="477" viewBox="0 0 542 477" fill="none" xmlns="http://www.w3.org/2000/svg">
<path d="M8.06155 162.086C8.06155 162.086 70.2526 172.757 93.1343 171.208C93.1343 171.208 80.2267 168.971 67.5147 167.249C67.5147 167.249 66.5368 162.602 63.0166 161.914C59.4963 161.225 55.5849 164.324 55.5849 164.324C55.5849 164.324 54.9982 158.988 48.5444 157.267C42.0906 155.546 42.0906 161.57 42.0906 161.57C42.0906 161.57 33.29 146.424 22.1425 144.702C10.9951 142.981 2.97674 152.62 8.06155 162.086Z" fill="#EFE5E9"/>
<path d="M243.702 50.2329C243.702 50.2329 218.473 48.6839 213.78 49.3723C209.086 50.0608 197.694 46.9627 218.229 47.7372C218.229 47.7372 218.669 42.1865 227.469 42.1865C236.27 42.1865 237.443 45.5428 237.443 45.5428C237.443 45.5428 247.32 48.3397 243.702 50.2329Z" fill="#EFE5E9"/>
<path d="M468.591 116.446C468.591 116.446 493.046 110.776 497.804 110.681C502.561 110.586 513.095 105.67 493.086 109.806C493.086 109.806 491.475 104.426 482.829 105.872C474.184 107.319 473.743 110.809 473.743 110.809C473.743 110.809 464.635 115.181 468.591 116.446Z" fill="#EFE5E9"/>
<path d="M99.6467 67.143C99.3707 67.4446 52.4167 61.7214 47.283 59.5269C42.1493 57.3325 38.189 54.2344 43.6161 52.6853C49.0431 51.1363 51.83 51.9108 51.83 51.9108C51.83 51.9108 54.9102 39.0022 69.2846 39.7767C83.6589 40.5512 84.2456 51.7817 83.9523 57.2034C83.9523 57.2034 85.8591 54.8798 90.5527 56.2998C95.2464 57.7197 93.1929 60.5596 94.2197 60.5596C95.2464 60.5596 103.9 62.4959 99.6467 67.143Z" fill="#EFE5E9"/>
<path d="M517.074 174.771C517.074 174.771 454.883 185.442 432.001 183.893C432.001 183.893 444.909 181.655 457.621 179.934C457.621 179.934 458.599 175.287 462.119 174.599C465.639 173.91 469.551 177.008 469.551 177.008C469.551 177.008 470.138 171.673 476.591 169.952C483.045 168.23 483.045 174.254 483.045 174.254C483.045 174.254 491.846 159.108 502.993 157.387C514.141 155.666 522.159 165.304 517.074 174.771Z" fill="#EFE5E9"/>
<path d="M411.97 77.4767C412.358 77.9005 478.345 69.8573 485.56 66.7733C492.774 63.6893 498.34 59.3354 490.713 57.1584C483.086 54.9814 479.169 56.0699 479.169 56.0699C479.169 56.0699 474.841 37.9286 454.639 39.0171C434.438 40.1055 433.614 55.8885 434.026 63.5079C434.026 63.5079 431.346 60.2424 424.75 62.238C418.154 64.2335 421.04 68.2246 419.597 68.2246C418.154 68.2246 405.992 70.9458 411.97 77.4767Z" fill="#EFE5E9"/>
<path d="M327.736 118.636C330.634 118.636 332.984 116.569 332.984 114.018C332.984 111.468 330.634 109.4 327.736 109.4C324.838 109.4 322.489 111.468 322.489 114.018C322.489 116.569 324.838 118.636 327.736 118.636Z" fill="#EFE5E9"/>
<path d="M325.246 88.8173C326.769 88.8173 328.003 87.7309 328.003 86.3907C328.003 85.0505 326.769 83.9641 325.246 83.9641C323.723 83.9641 322.489 85.0505 322.489 86.3907C322.489 87.7309 323.723 88.8173 325.246 88.8173Z" fill="#EFE5E9"/>
<path d="M302.566 93.1094C304.674 93.1094 306.383 91.6054 306.383 89.7501C306.383 87.8948 304.674 86.3907 302.566 86.3907C300.458 86.3907 298.749 87.8948 298.749 89.7501C298.749 91.6054 300.458 93.1094 302.566 93.1094Z" fill="#EFE5E9"/>
<path d="M80.8426 257.682C83.6301 256.984 85.2469 254.43 84.454 251.976C83.6611 249.523 80.7587 248.1 77.9712 248.798C75.1837 249.496 73.5669 252.05 74.3598 254.503C75.1527 256.957 78.0551 258.38 80.8426 257.682Z" fill="#EFE5E9"/>
<path d="M48.6735 255.197C50.1382 254.831 50.9878 253.488 50.5712 252.199C50.1545 250.91 48.6294 250.163 47.1647 250.529C45.7001 250.896 44.8504 252.238 45.2671 253.527C45.6837 254.816 47.2088 255.564 48.6735 255.197Z" fill="#EFE5E9"/>
<path d="M50.6638 276.28C52.6915 275.772 53.8677 273.914 53.2909 272.13C52.7141 270.345 50.6027 269.31 48.575 269.818C46.5473 270.325 45.3711 272.184 45.9479 273.968C46.5247 275.753 48.6361 276.788 50.6638 276.28Z" fill="#EFE5E9"/>
<path d="M408.212 267.635C410.999 266.937 412.616 264.382 411.823 261.929C411.031 259.476 408.128 258.053 405.341 258.751C402.553 259.449 400.936 262.003 401.729 264.456C402.522 266.91 405.425 268.333 408.212 267.635Z" fill="#EFE5E9"/>
<path d="M376.043 265.15C377.508 264.784 378.357 263.441 377.941 262.152C377.524 260.863 375.999 260.116 374.534 260.482C373.069 260.849 372.22 262.191 372.636 263.48C373.053 264.769 374.578 265.517 376.043 265.15Z" fill="#EFE5E9"/>
<path d="M378.033 286.233C380.061 285.726 381.237 283.867 380.66 282.083C380.083 280.298 377.972 279.263 375.944 279.771C373.917 280.278 372.741 282.137 373.317 283.921C373.894 285.706 376.005 286.741 378.033 286.233Z" fill="#EFE5E9"/>
<path d="M314.956 454.105C304.156 459.553 284.203 455.929 276.594 444.896L78.9517 200.897C76.4173 197.659 75.8261 191.425 76.6492 187.89C77.4722 184.355 81.965 180.35 84.9861 178.519C85.8321 178.006 86.7497 177.574 87.7137 177.234L191.675 146.958C201.062 143.654 211.99 146.226 218.251 153.212L425.431 371.725C427.777 374.716 428.816 377.441 429.625 378.911C431.131 381.649 431.126 384.832 430.596 387.922C429.898 391.987 427.916 395.277 424.082 397.601L314.956 454.105Z" fill="#212E51"/>
<path d="M419.663 390.635C419.344 390.828 419.015 391.014 418.676 391.19L314.774 444.318C303.974 449.766 290.364 447.157 283.116 438.25L85.0905 194.776C82.9132 192.101 82.0684 188.847 82.711 185.613C83.3472 182.41 85.445 179.522 88.4662 177.691C89.3122 177.178 90.2297 176.746 91.1938 176.406L197.814 140.837C207.201 137.533 218.129 140.105 224.39 147.092L423.343 369.114C426.277 372.388 427.503 376.46 426.796 380.58C426.098 384.645 423.498 388.31 419.664 390.634L419.663 390.635Z" fill="#6B32CD"/>
<path d="M91.4845 193.601L287.737 434.809C293.788 442.246 305.254 444.443 314.271 439.894L416.682 388.23C423.469 384.689 425.158 376.698 420.273 371.246L221.32 149.223C216.087 143.384 207.112 141.271 199.266 144.033L95.8601 180.43C89.8915 182.531 87.742 189.001 91.4845 193.601Z" fill="#EFE5E9"/>
<path d="M111.99 173.451L189.05 146.296L195.843 153.479C199.135 157.52 195.402 159.59 190.157 161.434L131.256 184.531C124.366 186.95 119.371 182.599 114.781 177.473L111.99 173.451Z" fill="#6B32CD"/>
<path d="M126.638 176.312C126.354 175.711 126.678 175.021 127.36 174.772L172.828 158.129C173.51 157.88 174.294 158.164 174.577 158.765C174.861 159.365 174.538 160.055 173.856 160.304L128.388 176.947C127.706 177.196 126.922 176.912 126.638 176.312Z" fill="white"/>
<path d="M178.624 159.015C179.794 159.015 180.742 158.18 180.742 157.151C180.742 156.122 179.794 155.287 178.624 155.287C177.454 155.287 176.506 156.122 176.506 157.151C176.506 158.18 177.454 159.015 178.624 159.015Z" fill="white"/>
<path d="M291.698 353.843C291.698 353.843 268.195 361.108 231.943 338.178C195.691 315.248 120.197 230.052 131.783 213.446C143.369 196.84 196.605 206.844 267.344 257.428C338.083 308.012 320.445 354.383 291.698 353.843Z" fill="url(#paint0_linear_49_3730)"/>
<path d="M329.689 300.555V359.831C323.093 361.133 316.03 361.79 308.677 361.759C306.609 361.753 304.517 361.692 302.402 361.574C299.259 361.403 296.074 361.106 292.862 360.686V309.322L299.523 307.737L313.545 304.398L329.689 300.555Z" fill="#212E51"/>
<path d="M305.071 341.342C305.725 349.002 307.113 355.921 308.677 361.759C306.609 361.753 304.517 361.692 302.402 361.574C299.259 361.403 296.074 361.106 292.862 360.686V309.322L299.523 307.737L313.545 304.399C308.945 314.242 303.951 328.309 305.071 341.342Z" fill="url(#paint1_linear_49_3730)"/>
<path d="M302.402 361.574C299.259 361.403 296.074 361.106 292.862 360.686C287.463 359.982 281.983 358.929 276.481 357.516C271.433 356.217 266.367 354.615 261.334 352.7C259.017 351.818 256.746 350.886 254.532 349.907C250.922 332.35 247.722 309.106 247.722 309.106C246.957 303.86 263.032 299.98 277.44 298.58C288.981 297.456 299.45 297.924 299.34 300.555C299.301 301.508 299.374 304.085 299.523 307.737C300.043 320.357 301.488 345.821 302.402 361.574Z" fill="#212E51"/>
<path d="M265.705 333.01C267.403 343.674 272.313 351.122 276.481 357.516C271.433 356.217 266.367 354.615 261.334 352.7C259.017 351.818 256.746 350.886 254.532 349.907C250.922 332.35 247.722 309.106 247.722 309.106C246.957 303.86 263.032 299.98 277.44 298.58C271.525 305.172 263.235 317.513 265.705 333.01Z" fill="url(#paint2_linear_49_3730)"/>
<path d="M343.353 191.248C343.353 191.248 347.119 176.103 347.052 172.062C346.985 168.021 348.236 160.496 340.325 160.003C332.414 159.509 328.731 167.193 328.49 169.814C328.249 172.435 331.355 192.071 332.539 192.125C333.722 192.18 342.27 191.906 343.353 191.248Z" fill="#E48780"/>
<path d="M300.643 187.557C300.643 187.557 315.492 189.165 322.365 204.076C329.238 218.986 336.048 236.821 335.051 243.253C334.054 249.685 325.749 252.17 321.431 246.615C317.112 241.06 298.708 193.239 300.643 187.557Z" fill="#22AAE2"/>
<path d="M300.643 187.557C300.643 187.557 315.492 189.165 322.365 204.076C329.238 218.986 336.048 236.821 335.051 243.253C334.054 249.685 325.749 252.17 321.431 246.615C317.112 241.06 298.708 193.239 300.643 187.557Z" fill="url(#paint3_linear_49_3730)"/>
<path d="M312.474 159.55L307.623 157.717C307.623 157.717 306.224 158.47 305.554 159.746C304.885 161.023 305.257 162.235 305.257 162.235L309.758 164.003C309.758 164.003 312.065 162.08 312.214 161.355C312.363 160.631 312.474 159.55 312.474 159.55Z" fill="#ED5A76"/>
<path d="M347.676 227.173C347.508 237.551 346.013 245.884 335.149 249.101C325.861 251.847 326.068 246.267 326.167 240.398C326.186 239.399 326.198 238.396 326.163 237.42C325.919 230.71 329.57 195.354 329.57 195.354C329.67 194.368 331.184 193.762 333.23 193.399C337.799 192.581 345.019 192.965 345.019 192.965C345.019 192.965 347.841 216.794 347.676 227.173Z" fill="#22AAE2"/>
<path d="M333.23 193.399C332.293 198.578 329.59 214.132 328.905 224.834C328.404 232.712 327.108 237.692 326.167 240.398C326.186 239.399 326.198 238.396 326.163 237.42C325.919 230.71 329.57 195.354 329.57 195.354C329.67 194.368 331.184 193.762 333.23 193.399Z" fill="url(#paint4_linear_49_3730)"/>
<path d="M331.395 192.235C331.395 192.235 331.258 195.674 331.978 196.036C332.699 196.398 340.034 196.088 341.778 195.404C343.522 194.72 344.021 194.8 344.104 194.212C344.187 193.624 344.104 190.458 344.104 190.458C344.104 190.458 337.543 191.285 335.633 191.066C333.722 190.846 331.396 190.992 331.395 192.235Z" fill="#22AAE2"/>
<path d="M341.553 185.462C341.553 185.462 339.436 184.585 336.267 183.265C326.904 179.369 308.361 171.63 308.083 171.338C307.713 170.943 306.597 168.389 309.276 162.498C309.461 162.091 309.659 161.708 309.872 161.355C312.701 156.577 317.535 156.408 317.535 156.408L344.393 163.152C353.101 169.571 341.553 185.462 341.553 185.462Z" fill="#F6B042"/>
<path d="M352.58 174.416C352.58 180.636 348.449 185.676 343.351 185.676C341.871 185.676 340.474 185.251 339.233 184.495C336.205 182.65 334.126 178.83 334.126 174.416C334.126 168.365 338.031 163.432 342.93 163.164C343.07 163.155 343.211 163.152 343.351 163.152C348.449 163.152 352.58 168.193 352.58 174.416Z" fill="#212E51"/>
<path d="M348.038 173.246C348.038 179.294 344.132 184.226 339.233 184.495C336.205 182.65 334.126 178.83 334.126 174.416C334.126 168.365 338.031 163.433 342.93 163.164C345.958 165.012 348.038 168.832 348.038 173.246Z" fill="#22AAE2"/>
<path d="M336.267 183.265C326.904 179.369 308.361 171.63 308.083 171.338C307.713 170.943 306.597 168.389 309.276 162.498C309.461 162.091 309.659 161.708 309.872 161.355C315.61 163.631 325.931 168.335 329.251 173.831C331.447 177.464 334.088 180.774 336.267 183.265Z" stroke="black" stroke-miterlimit="10"/>
<path d="M344.444 159.876C344.81 160.493 344.538 161.254 343.835 161.576L339.357 163.628C338.655 163.95 337.789 163.71 337.422 163.093C337.056 162.476 337.329 161.715 338.031 161.393L342.51 159.341C343.212 159.019 344.078 159.259 344.444 159.876Z" fill="#E48780"/>
<path d="M340.721 158.687V158.687C341.088 159.304 340.815 160.065 340.113 160.387L335.634 162.438C334.932 162.76 334.066 162.521 333.7 161.903H333.7C333.334 161.286 333.606 160.525 334.309 160.203L338.787 158.152C339.489 157.83 340.355 158.069 340.721 158.687Z" fill="#E48780"/>
<path d="M337.637 157.18V157.18C338.003 157.797 337.73 158.558 337.028 158.88L332.549 160.932C331.847 161.253 330.981 161.014 330.615 160.397C330.249 159.78 330.521 159.018 331.224 158.697L335.702 156.645C336.404 156.323 337.27 156.563 337.637 157.18Z" fill="#E48780"/>
<path d="M333.35 156.108C333.716 156.725 333.443 157.486 332.741 157.808L328.263 159.86C327.56 160.182 326.694 159.942 326.328 159.325C325.962 158.708 326.235 157.947 326.937 157.625L331.415 155.573C332.118 155.251 332.984 155.491 333.35 156.108Z" fill="#E48780"/>
<path d="M348.038 173.246C348.038 179.294 344.132 184.226 339.233 184.495C336.205 182.65 334.126 178.83 334.126 174.416C334.126 168.365 338.031 163.433 342.93 163.164C345.958 165.012 348.038 168.832 348.038 173.246Z" fill="url(#paint5_linear_49_3730)"/>
<path d="M343.554 171.767C344.62 171.767 345.485 170.718 345.485 169.424C345.485 168.13 344.62 167.081 343.554 167.081C342.487 167.081 341.622 168.13 341.622 169.424C341.622 170.718 342.487 171.767 343.554 171.767Z" fill="white"/>
<path d="M331.395 192.235C331.395 192.235 331.258 195.674 331.978 196.036C332.699 196.398 340.034 196.088 341.778 195.404C343.522 194.72 344.021 194.8 344.104 194.212C344.187 193.624 344.104 190.458 344.104 190.458C344.104 190.458 337.543 191.285 335.633 191.066C333.722 190.846 331.396 190.992 331.395 192.235Z" fill="url(#paint6_linear_49_3730)"/>
<path d="M337.211 302.601C337.211 302.601 336.775 310.062 308.482 316.056C306.608 316.449 304.616 316.84 302.494 317.22C290.877 319.307 280.274 319.283 271.334 318.348C253.95 316.52 242.865 311.227 242.865 311.227L250.173 274.973C250.173 274.973 244.601 249.666 240.292 228.889C238.307 219.318 236.59 210.71 235.81 205.972C235.443 203.781 235.282 202.418 235.39 202.176C236.219 200.274 249.174 193.695 249.174 193.695C249.174 193.695 250.838 187.85 250.838 186.827C250.838 185.804 256.983 183.609 256.983 183.609C256.983 183.609 269.938 183.465 274.756 183.609C279.574 183.758 279.406 186.827 279.406 186.827C279.406 186.827 295.519 186.241 300.643 187.557C305.767 188.873 315.617 212.702 320.267 228.488C324.921 244.275 337.211 302.601 337.211 302.601Z" fill="#22AAE2"/>
<path d="M308.482 316.056C306.608 316.45 304.616 316.84 302.494 317.22C290.877 319.307 280.274 319.283 271.333 318.348C253.95 316.52 242.865 311.227 242.865 311.227L250.172 274.973C250.172 274.973 244.601 249.666 240.292 228.889C238.307 219.318 236.59 210.71 235.81 205.972C245.438 208.691 260.986 214.893 270.056 227.977C283.891 247.93 283.145 269.201 279.157 273.145C275.173 277.093 304.073 284.332 293.11 286.96C282.147 289.591 268.443 290.032 274.92 299.24C279.069 305.136 296.483 311.927 308.482 316.056Z" fill="url(#paint7_linear_49_3730)"/>
<path d="M242.865 311.227L250.173 274.973C250.173 274.973 244.601 249.666 240.292 228.889C249.721 246.112 264.24 273.852 262.715 278.627C260.761 284.735 247.488 309.44 271.334 318.348C253.95 316.52 242.865 311.227 242.865 311.227Z" fill="url(#paint8_linear_49_3730)"/>
<path d="M256.651 173.377C256.651 173.377 248.927 170.746 243.445 163.218C237.964 155.689 237.217 141.363 247.266 140.413C247.266 140.413 242.117 138.294 243.944 137.343C245.771 136.393 248.512 137.782 248.512 137.782C248.512 137.782 245.439 132.446 246.601 130.911C247.764 129.376 250.671 136.101 250.671 136.101C250.671 136.101 255.322 125.064 268.444 123.529C281.566 121.994 292.944 127.111 298.675 137.197C304.405 147.284 296.847 154.081 285.968 154.301C275.088 154.52 267.779 167.896 263.461 169.796C259.142 171.696 256.651 173.377 256.651 173.377Z" fill="#212E51"/>
<path d="M276.595 179.423C276.565 179.43 276.53 179.437 276.5 179.443V186.315C276.5 186.315 269.108 188.142 262.879 188.142C262.229 188.142 261.633 188.126 261.086 188.092C256.386 187.809 255.323 186.46 255.323 186.46V172.719L256.899 171.185C256.899 171.185 251.668 167.019 252.582 163.071C253.495 159.124 259.64 156.055 261.965 161.904L262.631 164.461C262.631 164.461 271.682 158.32 269.108 150.428C269.108 150.428 281.027 155.008 293.837 151.66C293.837 151.66 298.494 175.132 276.595 179.423Z" fill="#E48780"/>
<path d="M260.554 165.995C260.554 165.995 260.554 161.317 258.478 160.879C256.401 160.44 255.322 162.925 255.322 162.925L256.9 162.341C256.9 162.341 255.239 164.826 256.983 166.361C258.727 167.896 260.756 168.085 260.554 165.995Z" fill="url(#paint9_linear_49_3730)"/>
<path d="M276.595 179.423C276.565 179.43 276.53 179.437 276.5 179.443V186.315C276.5 186.315 269.108 188.142 262.879 188.142C262.229 188.142 261.632 188.126 261.086 188.092L261.384 174.984C261.384 174.984 267.2 179.262 276.595 179.423Z" fill="url(#paint10_linear_49_3730)"/>
<path d="M319.022 167.457C319.022 167.457 327.369 166.47 327.494 165.264C327.618 164.058 318.254 161.866 315.866 161.263C313.479 160.66 312.669 160.605 311.548 160.988C310.427 161.372 304.728 162.288 305.179 162.872C305.63 163.455 314.329 166.964 315.866 167.238C317.403 167.512 319.022 167.457 319.022 167.457Z" fill="#212E51"/>
<path d="M327.494 165.264V168.773C327.494 168.773 319.919 170.033 318.256 169.047C316.593 168.06 317.465 166.744 317.465 166.744L327.494 165.264Z" fill="#212E51"/>
<path d="M291.698 163.802L286.284 161.756C286.284 161.756 284.722 162.596 283.975 164.022C283.227 165.447 283.642 166.799 283.642 166.799L288.667 168.773C288.667 168.773 291.242 166.626 291.408 165.817C291.574 165.008 291.698 163.802 291.698 163.802Z" fill="#ED5A76"/>
<path d="M324.156 192.726C324.156 192.726 321.793 191.747 318.256 190.273C307.805 185.925 287.107 177.286 286.797 176.96C286.384 176.519 285.138 173.669 288.128 167.093C288.335 166.639 288.556 166.211 288.793 165.817C291.952 160.483 297.347 160.295 297.347 160.295L327.326 167.823C337.046 174.988 324.156 192.726 324.156 192.726Z" fill="#F6B042"/>
<path d="M263.935 273.034C263.935 273.034 263.931 273.038 263.931 273.034C259.679 275.303 253.534 274.717 249.672 272.691C242.529 268.949 223.264 240.328 225.425 223.081C225.891 219.335 226.725 216.145 227.738 213.446C231.398 203.71 237.447 200.348 237.447 200.348C242.166 200.278 242.533 205.83 246.968 216.209C251.4 226.587 264.459 245.153 268.11 260.209C269.789 267.125 267.544 271.11 263.935 273.034Z" fill="#22AAE2"/>
<path d="M263.931 273.034C259.679 275.303 253.534 274.717 249.672 272.691C242.529 268.949 223.264 240.327 225.425 223.081C225.891 219.335 226.725 216.145 227.738 213.446C228.033 221.66 229.948 235.273 238.38 247.199C250.1 263.783 251.993 270.854 263.931 273.034Z" fill="url(#paint11_linear_49_3730)"/>
<path d="M336.465 180.396C336.465 187.338 331.854 192.965 326.164 192.965C324.512 192.965 322.952 192.49 321.567 191.646C318.187 189.586 315.866 185.322 315.866 180.396C315.866 173.642 320.225 168.136 325.693 167.837C325.85 167.826 326.007 167.823 326.164 167.823C331.854 167.823 336.465 173.45 336.465 180.396Z" fill="#212E51"/>
<path d="M331.395 179.09C331.395 185.841 327.036 191.346 321.567 191.646C318.187 189.586 315.866 185.322 315.866 180.396C315.866 173.642 320.225 168.136 325.693 167.837C329.074 169.899 331.395 174.163 331.395 179.09Z" fill="#22AAE2"/>
<path d="M318.256 190.273C307.806 185.925 287.107 177.286 286.797 176.96C286.384 176.519 285.138 173.669 288.128 167.093C288.335 166.639 288.556 166.211 288.793 165.817C295.198 168.358 306.72 173.608 310.425 179.743C312.876 183.798 315.824 187.493 318.256 190.273Z" fill="url(#paint12_linear_49_3730)"/>
<path d="M294.25 199.837C294.25 199.837 290.537 235.65 282.564 251.877C274.592 268.104 264.956 276.289 256.818 273.617C255.935 273.327 255.128 272.937 254.39 272.466C248.651 268.828 247.125 260.411 247.722 257.208C247.756 257.022 247.798 256.851 247.848 256.703C248.842 253.661 279.241 195.452 279.241 195.452C279.991 195.371 280.725 195.344 281.448 195.358C284.052 195.401 286.438 195.99 288.426 196.734C291.971 198.05 294.25 199.837 294.25 199.837Z" fill="#22AAE2"/>
<path d="M281.448 195.358C276.645 205.036 257.832 242.902 255.813 246.469C254.398 248.969 250.525 253.815 247.722 257.208C247.756 257.022 247.798 256.851 247.848 256.703C248.842 253.661 279.242 195.452 279.242 195.452C279.991 195.371 280.725 195.344 281.448 195.358Z" fill="url(#paint13_linear_49_3730)"/>
<path d="M283.705 187.63C283.705 187.63 282.646 190.919 283.331 191.906C284.016 192.893 290.121 195.392 291.304 195.403C292.488 195.414 292.861 195.322 293.36 194.702C293.858 194.081 294.552 191.796 294.552 191.796C294.552 191.796 298.894 190.81 300.643 185.657C302.391 180.504 304.821 175.515 306.814 173.706C308.807 171.897 313.541 168.827 312.607 167.841C311.672 166.854 309.119 167.989 307.312 169.285C305.506 170.582 302.454 173.103 302.454 173.103C302.454 173.103 304.509 170.401 305.88 169.285C307.25 168.17 310.863 166.744 311.236 165.812C311.61 164.881 310.987 164.058 310.489 164.058C309.991 164.058 304.198 166.58 302.578 167.731C300.959 168.882 298.28 171.733 298.28 171.733C298.28 171.733 301.831 166.964 303.201 166.251C304.571 165.538 308.06 164.168 308.371 163.62C308.683 163.072 308.371 162.249 308.06 162.14C307.748 162.03 303.326 163.455 302.142 163.784C300.959 164.113 297.657 167.018 296.536 167.896C295.415 168.773 294.252 169.65 294.252 169.65C294.252 169.65 299.775 164.278 300.336 163.949C300.896 163.62 303.326 162.962 303.637 162.359C303.949 161.756 303.263 161.263 302.765 161.263C302.267 161.263 298.779 162.523 298.343 162.797C297.907 163.072 290.058 169.047 288.937 170.965C287.816 172.884 283.082 183.903 283.705 187.63Z" fill="#E48780"/>
<path d="M294.25 199.837C294.25 199.837 290.537 235.65 282.564 251.877C274.592 268.104 264.956 276.289 256.819 273.617C255.935 273.327 255.128 272.937 254.39 272.466C263.323 268.161 267.758 256.036 275.051 242.67C281.134 231.511 285.968 209.572 288.426 196.734C291.971 198.05 294.25 199.837 294.25 199.837Z" fill="url(#paint14_linear_49_3730)"/>
<path d="M279.843 196.072C279.843 196.072 281.525 190.7 282.21 190.481C282.895 190.262 291.865 191.632 293.484 193.605C295.104 195.579 294.455 195.689 294.25 196.949C294.045 198.21 293.733 200.292 293.36 200.348C292.986 200.403 284.328 198.32 282.957 197.717C281.587 197.114 279.843 196.072 279.843 196.072Z" fill="#22AAE2"/>
<path d="M279.843 196.072C279.843 196.072 281.525 190.7 282.21 190.481C282.895 190.262 291.865 191.632 293.484 193.605C295.104 195.579 294.455 195.689 294.25 196.949C294.045 198.21 293.733 200.292 293.36 200.348C292.986 200.403 284.328 198.32 282.957 197.717C281.587 197.114 279.843 196.072 279.843 196.072Z" fill="url(#paint15_linear_49_3730)"/>
<path d="M331.395 179.09C331.395 185.841 327.036 191.346 321.567 191.646C318.187 189.586 315.866 185.322 315.866 180.396C315.866 173.642 320.225 168.136 325.693 167.837C329.074 169.899 331.395 174.163 331.395 179.09Z" fill="url(#paint16_linear_49_3730)"/>
<path d="M325.562 176.995C326.629 176.995 327.494 175.947 327.494 174.653C327.494 173.359 326.629 172.31 325.562 172.31C324.495 172.31 323.63 173.359 323.63 174.653C323.63 175.947 324.495 176.995 325.562 176.995Z" fill="white"/>
<path d="M436.714 285.396C437.079 285.396 437.445 285.396 437.81 285.396C437.9 285.422 437.989 285.455 438.081 285.474C439.453 285.751 440.426 286.44 440.778 287.659C440.987 288.384 441.131 289.138 441.17 289.885C441.293 292.246 440.84 294.565 440.37 296.878C440.243 297.503 440.093 298.124 439.945 298.787C440.181 298.787 440.348 298.787 440.514 298.787C443.072 298.787 445.629 298.785 448.187 298.789C448.734 298.79 449.284 298.786 449.829 298.826C451.857 298.974 453.628 300.591 453.762 302.38C453.83 303.298 453.582 304.141 453.018 304.909C455.824 306.49 455.906 310.055 453.018 311.692C453.738 312.672 453.96 313.741 453.631 314.874C453.297 316.026 452.467 316.85 451.282 317.42C451.879 318.326 452.085 319.272 451.846 320.265C451.403 322.102 449.608 323.385 447.464 323.391C443.937 323.402 440.41 323.408 436.882 323.387C432.438 323.362 428.112 322.703 423.898 321.457C423.621 321.375 423.545 321.262 423.546 321.012C423.554 314.457 423.554 307.902 423.546 301.347C423.546 301.11 423.631 300.966 423.84 300.824C425.511 299.689 427.119 298.492 428.531 297.104C429.72 295.936 430.718 294.672 431.329 293.174C432.048 291.408 432.824 289.66 433.616 287.917C433.831 287.443 434.153 286.995 434.495 286.579C435.038 285.921 435.86 285.626 436.714 285.396Z" fill="#EFE5E9"/>
<path d="M412.005 302.985C412.306 302.312 412.865 302.071 413.682 302.082C415.943 302.112 418.204 302.092 420.465 302.092C420.619 302.092 420.772 302.092 420.963 302.092C420.963 308.342 420.963 314.573 420.963 320.855C420.79 320.855 420.627 320.855 420.464 320.855C418.203 320.855 415.942 320.841 413.681 320.862C412.853 320.87 412.264 320.633 412.005 319.907C412.005 314.266 412.005 308.626 412.005 302.985Z" fill="#22AAE2"/>
<path d="M443.94 339.159C444.149 339.159 444.357 339.159 444.565 339.159C444.617 339.174 444.667 339.193 444.72 339.204C445.502 339.362 446.057 339.754 446.258 340.45C446.377 340.863 446.459 341.293 446.481 341.719C446.551 343.065 446.293 344.387 446.025 345.706C445.952 346.063 445.867 346.417 445.782 346.795C445.917 346.795 446.012 346.795 446.107 346.795C447.565 346.795 449.024 346.794 450.482 346.796C450.795 346.796 451.108 346.794 451.419 346.817C452.575 346.902 453.585 347.824 453.661 348.844C453.7 349.367 453.558 349.848 453.237 350.286C454.837 351.187 454.884 353.22 453.237 354.153C453.648 354.712 453.774 355.322 453.587 355.968C453.396 356.625 452.923 357.094 452.247 357.42C452.587 357.936 452.705 358.475 452.569 359.042C452.316 360.089 451.292 360.821 450.07 360.825C448.059 360.831 446.048 360.834 444.036 360.822C441.502 360.808 439.035 360.432 436.633 359.721C436.475 359.675 436.431 359.61 436.432 359.468C436.436 355.73 436.436 351.992 436.432 348.255C436.432 348.12 436.48 348.037 436.6 347.956C437.552 347.309 438.469 346.627 439.274 345.835C439.952 345.169 440.522 344.448 440.87 343.595C441.28 342.588 441.722 341.59 442.174 340.597C442.297 340.327 442.48 340.071 442.675 339.834C442.984 339.459 443.454 339.29 443.94 339.159Z" fill="#EFE5E9"/>
<path d="M429.851 349.189C430.022 348.805 430.342 348.667 430.807 348.674C432.096 348.691 433.386 348.68 434.675 348.68C434.763 348.68 434.85 348.68 434.959 348.68C434.959 352.243 434.959 355.796 434.959 359.378C434.86 359.378 434.767 359.378 434.674 359.378C433.385 359.378 432.096 359.37 430.807 359.382C430.335 359.387 429.999 359.252 429.851 358.838C429.851 355.621 429.851 352.405 429.851 349.189Z" fill="#22AAE2"/>
<path d="M132.883 387.962C132.883 387.962 136.345 381.476 133.53 366.633C130.886 352.694 129.062 344.775 119.129 341.668C108.144 338.233 99.7447 342.65 97.6629 349.784C95.5811 356.918 111.367 382.326 132.883 387.962Z" fill="#49BCCB"/>
<path d="M132.883 387.962C132.883 387.962 136.345 381.476 133.53 366.633C133.53 366.633 124.513 354.203 120.092 356.057C118.219 356.842 123.219 374.43 120.263 373.505C109.278 370.07 99.7447 342.65 97.6629 349.784C95.5811 356.918 111.367 382.326 132.883 387.962Z" fill="url(#paint17_linear_49_3730)"/>
<path d="M131 388.533C135.447 388.022 113.468 374.577 101.941 370.202C90.4141 365.826 81.5219 366.849 79.5085 371.727C77.4951 376.605 84.4764 384.773 96.5626 386.083C108.649 387.393 126.554 389.045 131 388.533Z" fill="#49BCCB"/>
<path d="M131.001 388.533C135.447 388.022 113.468 374.577 101.941 370.202C90.4142 365.826 117.79 378.167 115.776 383.045C113.763 387.923 84.4764 384.773 96.5626 386.083C108.649 387.393 126.554 389.045 131.001 388.533Z" fill="url(#paint18_linear_49_3730)"/>
<path d="M136.416 386.813C136.416 386.813 150.587 373.191 154.81 364.67C159.032 356.15 158.706 343.829 154.757 343.326C150.808 342.823 141.355 342.274 138.2 358.739C134.599 377.536 136.416 386.813 136.416 386.813Z" fill="#49BCCB"/>
<path d="M136.416 386.813C136.416 386.813 150.587 373.191 154.81 364.67C159.032 356.15 149.093 368.641 145.144 368.138C141.195 367.634 138.2 358.739 138.2 358.739C134.599 377.536 136.416 386.813 136.416 386.813Z" fill="url(#paint19_linear_49_3730)"/>
<path d="M136.876 387.029C138.293 386.447 166.371 375.614 164.485 368.592C163.091 363.401 152.865 367.293 146.393 373.092C139.921 378.892 135.459 387.612 136.876 387.029Z" fill="#49BCCB"/>
<path d="M136.876 387.029C138.293 386.447 166.371 375.614 164.485 368.592C163.803 366.051 159.386 375.244 149.329 376.24C145.586 376.61 149.697 370.132 146.393 373.092C139.921 378.892 135.459 387.612 136.876 387.029Z" fill="url(#paint20_linear_49_3730)"/>
<path d="M153.812 307.42C150.42 307.897 148.748 313.989 155.297 314.143C160.571 314.266 157.204 306.942 153.812 307.42Z" fill="#49BCCB"/>
<path d="M124.875 292.899C124.562 294.211 123.532 298.225 119.58 296.693C115.629 295.161 119.621 289.357 121.629 289.065C123.637 288.772 125.512 290.221 124.875 292.899Z" fill="#49BCCB"/>
<path d="M135.365 327.515C132.989 329.317 135.779 334.77 138.813 332.148C142.254 329.175 137.742 325.713 135.365 327.515Z" fill="#49BCCB"/>
<path d="M502.678 114.146H364.48V167.058H502.678V114.146Z" fill="#49BCCB"/>
<path d="M402.078 123.409H372.179V149.721H402.078V123.409Z" fill="#EFE5E9"/>
<path d="M387.128 135.982C389.972 135.982 392.277 133.953 392.277 131.45C392.277 128.947 389.972 126.918 387.128 126.918C384.284 126.918 381.979 128.947 381.979 131.45C381.979 133.953 384.284 135.982 387.128 135.982Z" fill="#212E51"/>
<path d="M400.602 147.897C400.602 148.517 400.548 149.126 400.441 149.721H373.816C373.709 149.126 373.655 148.517 373.655 147.897C373.655 141.349 379.689 136.038 387.127 136.038C394.568 136.038 400.602 141.349 400.602 147.897Z" fill="#212E51"/>
<path d="M494.979 125.482H410.765V128.114H494.979V125.482Z" fill="white"/>
<path d="M494.979 134.665H410.765V137.298H494.979V134.665Z" fill="#F6B042"/>
<path d="M494.979 143.849H410.765V146.481H494.979V143.849Z" fill="#F6B042"/>
<path d="M494.979 155.862H372.179V157.796H494.979V155.862Z" fill="white"/>
<path d="M527.718 190.443H389.521V243.354H527.718V190.443Z" fill="#F6B042"/>
<path d="M427.118 199.705H397.219V226.018H427.118V199.705Z" fill="#EFE5E9"/>
<path d="M412.168 212.278C415.012 212.278 417.317 210.249 417.317 207.746C417.317 205.243 415.012 203.215 412.168 203.215C409.324 203.215 407.019 205.243 407.019 207.746C407.019 210.249 409.324 212.278 412.168 212.278Z" fill="#212E51"/>
<path d="M425.642 224.194C425.642 224.813 425.588 225.422 425.481 226.018H398.856C398.749 225.422 398.695 224.813 398.695 224.194C398.695 217.645 404.729 212.335 412.167 212.335C419.608 212.335 425.642 217.645 425.642 224.194Z" fill="#212E51"/>
<path d="M520.019 201.778H435.805V204.411H520.019V201.778Z" fill="white"/>
<path d="M520.019 210.961H435.805V213.594H520.019V210.961Z" fill="white"/>
<path d="M520.019 220.145H435.805V222.778H520.019V220.145Z" fill="#22AAE2"/>
<path d="M520.019 232.159H397.219V234.092H520.019V232.159Z" fill="white"/>
<defs>
<linearGradient id="paint0_linear_49_3730" x1="130.587" y1="280.494" x2="638.068" y2="280.494" gradientUnits="userSpaceOnUse">
<stop stop-color="#222E51" stop-opacity="0"/>
<stop offset="1" stop-color="#231F20"/>
</linearGradient>
<linearGradient id="paint1_linear_49_3730" x1="341.15" y1="333.131" x2="287.851" y2="333.012" gradientUnits="userSpaceOnUse">
<stop stop-color="#222E51" stop-opacity="0"/>
<stop offset="1" stop-color="#231F20"/>
</linearGradient>
<linearGradient id="paint2_linear_49_3730" x1="207.217" y1="328.048" x2="286.063" y2="328.048" gradientUnits="userSpaceOnUse">
<stop stop-color="#222E51" stop-opacity="0"/>
<stop offset="1" stop-color="#231F20"/>
</linearGradient>
<linearGradient id="paint3_linear_49_3730" x1="326.924" y1="210.259" x2="264.444" y2="268.402" gradientUnits="userSpaceOnUse">
<stop stop-color="#222E51" stop-opacity="0"/>
<stop offset="1" stop-color="#231F20"/>
</linearGradient>
<linearGradient id="paint4_linear_49_3730" x1="334.882" y1="216.927" x2="293.882" y2="216.633" gradientUnits="userSpaceOnUse">
<stop stop-color="white" stop-opacity="0"/>
<stop offset="1" stop-color="white"/>
</linearGradient>
<linearGradient id="paint5_linear_49_3730" x1="332.405" y1="171.131" x2="371.43" y2="186.801" gradientUnits="userSpaceOnUse">
<stop stop-color="white" stop-opacity="0"/>
<stop offset="1" stop-color="white"/>
</linearGradient>
<linearGradient id="paint6_linear_49_3730" x1="337.781" y1="192.526" x2="339.172" y2="203.691" gradientUnits="userSpaceOnUse">
<stop stop-color="#222E51" stop-opacity="0"/>
<stop offset="1" stop-color="#231F20"/>
</linearGradient>
<linearGradient id="paint7_linear_49_3730" x1="323.714" y1="260.049" x2="92.1861" y2="271.461" gradientUnits="userSpaceOnUse">
<stop stop-color="#222E51" stop-opacity="0"/>
<stop offset="1" stop-color="#231F20"/>
</linearGradient>
<linearGradient id="paint8_linear_49_3730" x1="303.772" y1="275.457" x2="144.437" y2="267.569" gradientUnits="userSpaceOnUse">
<stop stop-color="#222E51" stop-opacity="0"/>
<stop offset="1" stop-color="#231F20"/>
</linearGradient>
<linearGradient id="paint9_linear_49_3730" x1="252.504" y1="164.183" x2="297.381" y2="164.183" gradientUnits="userSpaceOnUse">
<stop stop-color="#222E51" stop-opacity="0"/>
<stop offset="1" stop-color="#231F20"/>
</linearGradient>
<linearGradient id="paint10_linear_49_3730" x1="268.674" y1="199.329" x2="269.556" y2="92.7414" gradientUnits="userSpaceOnUse">
<stop stop-color="#222E51" stop-opacity="0"/>
<stop offset="1" stop-color="#231F20"/>
</linearGradient>
<linearGradient id="paint11_linear_49_3730" x1="274.529" y1="236.424" x2="148.867" y2="275.98" gradientUnits="userSpaceOnUse">
<stop stop-color="white" stop-opacity="0"/>
<stop offset="1" stop-color="white"/>
</linearGradient>
<linearGradient id="paint12_linear_49_3730" x1="312.605" y1="161.966" x2="272.693" y2="253.192" gradientUnits="userSpaceOnUse">
<stop stop-color="#222E51" stop-opacity="0"/>
<stop offset="1" stop-color="#231F20"/>
</linearGradient>
<linearGradient id="paint13_linear_49_3730" x1="303.615" y1="247.14" x2="175.903" y2="159.025" gradientUnits="userSpaceOnUse">
<stop stop-color="white" stop-opacity="0"/>
<stop offset="1" stop-color="white"/>
</linearGradient>
<linearGradient id="paint14_linear_49_3730" x1="265.079" y1="233.074" x2="438.429" y2="295.578" gradientUnits="userSpaceOnUse">
<stop stop-color="#222E51" stop-opacity="0"/>
<stop offset="1" stop-color="#231F20"/>
</linearGradient>
<linearGradient id="paint15_linear_49_3730" x1="290.618" y1="190.84" x2="273.477" y2="226.314" gradientUnits="userSpaceOnUse">
<stop stop-color="#222E51" stop-opacity="0"/>
<stop offset="1" stop-color="#231F20"/>
</linearGradient>
<linearGradient id="paint16_linear_49_3730" x1="304.349" y1="173.257" x2="386.254" y2="208.818" gradientUnits="userSpaceOnUse">
<stop stop-color="white" stop-opacity="0"/>
<stop offset="1" stop-color="white"/>
</linearGradient>
<linearGradient id="paint17_linear_49_3730" x1="115.308" y1="356.862" x2="123.687" y2="447.228" gradientUnits="userSpaceOnUse">
<stop stop-color="#222E51" stop-opacity="0"/>
<stop offset="1" stop-color="#231F20"/>
</linearGradient>
<linearGradient id="paint18_linear_49_3730" x1="98.836" y1="378.286" x2="150.405" y2="411.706" gradientUnits="userSpaceOnUse">
<stop stop-color="#222E51" stop-opacity="0"/>
<stop offset="1" stop-color="#231F20"/>
</linearGradient>
<linearGradient id="paint19_linear_49_3730" x1="148.481" y1="354.609" x2="135.403" y2="421.826" gradientUnits="userSpaceOnUse">
<stop stop-color="#222E51" stop-opacity="0"/>
<stop offset="1" stop-color="#231F20"/>
</linearGradient>
<linearGradient id="paint20_linear_49_3730" x1="155.393" y1="371.522" x2="129.851" y2="413.275" gradientUnits="userSpaceOnUse">
<stop stop-color="#222E51" stop-opacity="0"/>
<stop offset="1" stop-color="#231F20"/>
</linearGradient>
</defs>
</svg>
