<svg width="20" height="12" viewBox="0 0 20 12" fill="none" xmlns="http://www.w3.org/2000/svg">
<path d="M1.46546 5.23813C1.15061 5.58548 1.15061 6.08135 1.46546 6.4287C2.97569 8.09485 6.12747 10.9167 10 10.9167C13.8725 10.9167 17.0243 8.09485 18.5345 6.4287C18.8494 6.08134 18.8494 5.58548 18.5345 5.23813C17.0243 3.57198 13.8725 0.750081 10 0.750081C6.12747 0.750081 2.97569 3.57198 1.46546 5.23813Z" stroke="#222222" stroke-width="1.5" stroke-linecap="round" stroke-linejoin="round"/>
<path d="M8.25 5.83325C8.25 6.79975 9.0335 7.58325 10 7.58325C10.9665 7.58325 11.75 6.79975 11.75 5.83325C11.75 4.86675 10.9665 4.08325 10 4.08325C9.0335 4.08325 8.25 4.86675 8.25 5.83325Z" stroke="#222222" stroke-width="1.5"/>
</svg>
