<svg width="16" height="16" viewBox="0 0 16 16" fill="none" xmlns="http://www.w3.org/2000/svg">
<g id="Credit Card">
<path id="Squircle" d="M0.75 8C0.75 9.62988 0.838312 10.8884 1.0557 11.8666C1.2712 12.8362 1.60343 13.4838 2.05983 13.9402C2.51623 14.3966 3.16376 14.7288 4.1334 14.9443C5.11156 15.1617 6.37012 15.25 8 15.25C9.62988 15.25 10.8884 15.1617 11.8666 14.9443C12.8362 14.7288 13.4838 14.3966 13.9402 13.9402C14.3966 13.4838 14.7288 12.8362 14.9443 11.8666C15.1617 10.8884 15.25 9.62988 15.25 8C15.25 6.37012 15.1617 5.11156 14.9443 4.1334C14.7288 3.16376 14.3966 2.51623 13.9402 2.05983C13.4838 1.60343 12.8362 1.2712 11.8666 1.0557C10.8884 0.838311 9.62988 0.75 8 0.75C6.37012 0.75 5.11156 0.838311 4.1334 1.0557C3.16376 1.2712 2.51623 1.60343 2.05983 2.05983C1.60343 2.51623 1.2712 3.16376 1.0557 4.1334C0.838312 5.11156 0.75 6.37012 0.75 8Z" stroke="#222222" stroke-width="1.5" stroke-linecap="round" stroke-linejoin="round"/>
<path id="Vector 139" d="M1.66675 5.33337L14.3334 5.33337" stroke="#222222" stroke-width="1.5" stroke-linecap="square" stroke-linejoin="round"/>
<path id="Vector 138" d="M9.33325 12H11.9999" stroke="#222222" stroke-width="1.5" stroke-linecap="round" stroke-linejoin="round"/>
</g>
</svg>
