<svg width="20" height="20" viewBox="0 0 20 20" fill="none" xmlns="http://www.w3.org/2000/svg">
<path d="M12.5649 5.4178C12.6974 5.28534 12.8546 5.18027 13.0277 5.10858C13.2007 5.0369 13.3862 5 13.5735 5C13.7609 5 13.9464 5.0369 14.1194 5.10858C14.2925 5.18027 14.4497 5.28534 14.5822 5.4178C14.7147 5.55026 14.8197 5.70751 14.8914 5.88057C14.9631 6.05364 15 6.23913 15 6.42645C15 6.61377 14.9631 6.79926 14.8914 6.97233C14.8197 7.14539 14.7147 7.30265 14.5822 7.4351L7.7738 14.2435L5 15L5.75649 12.2262L12.5649 5.4178Z" stroke="#5920BC" stroke-linecap="round" stroke-linejoin="round"/>
<path d="M0.6 10C0.6 12.0451 0.710362 13.6475 0.990163 14.9065C1.26845 16.1587 1.7063 17.034 2.33614 17.6639C2.96597 18.2937 3.84135 18.7316 5.09353 19.0098C6.35252 19.2896 7.95494 19.4 10 19.4C12.0451 19.4 13.6475 19.2896 14.9065 19.0098C16.1587 18.7316 17.034 18.2937 17.6639 17.6639C18.2937 17.034 18.7316 16.1587 19.0098 14.9065C19.2896 13.6475 19.4 12.0451 19.4 10C19.4 7.95494 19.2896 6.35252 19.0098 5.09353C18.7316 3.84135 18.2937 2.96597 17.6639 2.33614C17.034 1.7063 16.1587 1.26845 14.9065 0.990164C13.6475 0.710361 12.0451 0.6 10 0.6C7.95494 0.6 6.35252 0.710361 5.09353 0.990164C3.84135 1.26845 2.96597 1.7063 2.33614 2.33614C1.7063 2.96597 1.26845 3.84135 0.990163 5.09353C0.710362 6.35252 0.6 7.95494 0.6 10Z" stroke="#5920BC" stroke-width="1.2" stroke-linecap="round" stroke-linejoin="round"/>
</svg>
