<svg width="19" height="20" viewBox="0 0 19 20" fill="none" xmlns="http://www.w3.org/2000/svg">
<path d="M0.75 9.99999C0.75 11.95 0.800778 13.3407 0.964927 14.3757C1.12743 15.4004 1.39051 16.002 1.76171 16.429C2.13951 16.8637 2.70008 17.2003 3.63042 17.5557C4.32219 17.82 5.15351 18.0724 6.19055 18.3871C6.56447 18.5006 6.96513 18.6223 7.39563 18.7555C8.93979 19.2333 10.0474 19.3374 10.8439 19.1848C11.596 19.0407 12.117 18.6603 12.5112 18.0116C12.9276 17.3264 13.2097 16.3256 13.3793 14.956C13.5478 13.5961 13.5978 11.9438 13.5978 9.99999C13.5978 8.05617 13.5478 6.40389 13.3793 5.04398C13.2097 3.67442 12.9276 2.67362 12.5112 1.98843C12.117 1.33973 11.596 0.959301 10.8439 0.815224C10.0474 0.662634 8.93979 0.766649 7.39563 1.24449C6.96519 1.37768 6.56459 1.49928 6.19072 1.61277C5.1536 1.92757 4.32222 2.17993 3.63041 2.4442C2.70008 2.7996 2.13951 3.13627 1.76171 3.57093C1.39051 3.99799 1.12743 4.59958 0.964927 5.62426C0.800778 6.65931 0.75 8.04994 0.75 9.99999Z" stroke="#FF663A" stroke-width="1.5" stroke-linecap="round" stroke-linejoin="round"/>
<ellipse rx="0.797101" ry="0.800001" transform="matrix(-1 0 0 1 10.3623 10.1351)" fill="#FF663A"/>
<path d="M13.5508 17.2C17.5363 17.2 17.5363 16.2273 17.5363 10.1295C17.5363 4.03171 17.5363 2.80005 13.5508 2.80005" stroke="#FF663A" stroke-width="1.5" stroke-linecap="round" stroke-linejoin="round"/>
</svg>
