<svg width="16" height="16" viewBox="0 0 16 16" fill="none" xmlns="http://www.w3.org/2000/svg">
<path fill-rule="evenodd" clip-rule="evenodd" d="M2.90887 6.54541H13.0907C14.2957 6.54541 15.2725 7.52224 15.2725 8.72723V13.8181C15.2725 15.0231 14.2957 16 13.0907 16H2.90887C1.70388 16 0.727051 15.0231 0.727051 13.8181V8.72723C0.727051 7.52224 1.70388 6.54541 2.90887 6.54541ZM13.0907 8H2.90888C2.50722 8 2.18161 8.32561 2.18161 8.72727V13.8182C2.18161 14.2198 2.50722 14.5455 2.90888 14.5455H13.0907C13.4924 14.5455 13.818 14.2198 13.818 13.8182V8.72727C13.818 8.32561 13.4924 8 13.0907 8Z" fill="#222222"/>
<path d="M7.99987 0C10.3551 0 12.2745 1.86587 12.3605 4.20004L12.3635 4.36364V7.27273C12.3635 7.67439 12.0379 8 11.6362 8C11.2633 8 10.9559 7.71924 10.9139 7.35754L10.909 7.27273V4.36364C10.909 2.75699 9.60651 1.45455 7.99987 1.45455C6.44191 1.45455 5.16999 2.67925 5.09434 4.21844L5.09078 4.36364V7.27273C5.09078 7.67439 4.76516 8 4.3635 8C3.99053 8 3.68313 7.71924 3.64112 7.35754L3.63623 7.27273V4.36364C3.63623 1.95367 5.5899 0 7.99987 0Z" fill="#222222"/>
</svg>
