<svg width="117" height="120" viewBox="0 0 117 120" fill="none" xmlns="http://www.w3.org/2000/svg">
<g clip-path="url(#clip0_3123_16431)">
<path d="M117 61.9316C117 94.2403 90.8087 120.432 58.5 120.432C26.1913 120.432 0 94.2403 0 61.9316C0 29.623 26.1913 3.43164 58.5 3.43164C90.8087 3.43164 117 29.623 117 61.9316Z" fill="url(#paint0_radial_3123_16431)"/>
<mask id="mask0_3123_16431" style="mask-type:alpha" maskUnits="userSpaceOnUse" x="0" y="3" width="117" height="118">
<path d="M117 61.9316C117 94.2403 90.8087 120.432 58.5 120.432C26.1913 120.432 0 94.2403 0 61.9316C0 29.623 26.1913 3.43164 58.5 3.43164C90.8087 3.43164 117 29.623 117 61.9316Z" fill="#C4C4C4"/>
</mask>
<g mask="url(#mask0_3123_16431)">
</g>
<mask id="mask1_3123_16431" style="mask-type:alpha" maskUnits="userSpaceOnUse" x="0" y="3" width="117" height="118">
<path d="M117 61.9316C117 94.2403 90.8087 120.432 58.5 120.432C26.1913 120.432 0 94.2403 0 61.9316C0 29.623 26.1913 3.43164 58.5 3.43164C90.8087 3.43164 117 29.623 117 61.9316Z" fill="#C4C4C4"/>
</mask>
<g mask="url(#mask1_3123_16431)">
<path d="M97.6556 25.0258C96.1892 25.0258 95.0036 26.2071 95.0036 27.6683C95.0036 26.2071 93.818 25.0258 92.3516 25.0258C93.818 25.0258 95.0036 23.8444 95.0036 22.3833C95.0036 23.8444 96.1892 25.0258 97.6556 25.0258Z" fill="white"/>
<path d="M43.2251 53.5568C44.5586 54.1646 46.1299 53.5817 46.7399 52.253C46.1299 53.5817 46.7149 55.1474 48.0485 55.7552C46.7149 55.1474 45.1436 55.7303 44.5336 57.059C45.1436 55.7303 44.5586 54.1646 43.2251 53.5568Z" fill="white"/>
<path d="M100.494 57.6373C99.4644 57.6373 98.622 58.4766 98.622 59.5025C98.622 58.4766 97.7796 57.6373 96.75 57.6373C97.7796 57.6373 98.622 56.7979 98.622 55.772C98.622 56.7979 99.4644 57.6373 100.494 57.6373Z" fill="white"/>
<path d="M55.4794 20.2056C56.4157 20.6323 57.5322 20.2182 57.9605 19.2852C57.5322 20.2182 57.9479 21.3306 58.8842 21.7574C57.9479 21.3306 56.8314 21.7448 56.4031 22.6777C56.8314 21.7448 56.4157 20.6323 55.4794 20.2056Z" fill="white"/>
<path d="M89.2337 65.9379C87.7673 65.9379 86.5817 67.1192 86.5817 68.5804C86.5817 67.1192 85.3961 65.9379 83.9297 65.9379C85.3961 65.9379 86.5817 64.7566 86.5817 63.2954C86.5817 64.7255 87.7673 65.9379 89.2337 65.9379Z" fill="white"/>
<path d="M69.186 17.3254C70.5196 17.9331 72.0909 17.3503 72.7009 16.0215C72.0909 17.3503 72.6759 18.9159 74.0094 19.5237C72.6759 18.9159 71.1045 19.4988 70.4946 20.8276C71.0916 19.5271 70.5196 17.9331 69.186 17.3254Z" fill="white"/>
<path d="M23.6337 39.4374C23.6337 39.4374 2.81517 39.6975 -13.2965 46.8498C-29.4083 54.0021 -22.3144 49.4507 -16.4625 46.1996C-12.5755 44.1242 -8.43875 42.551 -4.1524 41.5181C-4.1524 41.5181 -6.93521 40.4777 -4.34185 37.7427C-1.74848 35.0076 4.86545 37.7427 4.86545 37.7427C4.86545 37.7427 0.933298 35.7962 4.38551 33.5855C7.83772 31.3748 22.7917 36.3206 23.6337 39.4374Z" fill="#EFE5E9"/>
<path d="M102.672 70.6683C102.672 70.6683 108.25 69.3343 123.322 69.8C134.268 70.1398 147.972 72.9252 152.278 74.3892C156.585 75.8532 153.802 72.7113 148.355 69.649C142.907 66.5867 136.63 66.163 136.63 66.163C136.63 66.163 143.442 64.9507 139.299 63.1846C135.156 61.4186 125.52 64.0236 125.52 64.0236C125.52 64.0236 128.589 61.6325 125.713 61.2508C120.661 60.5796 118.422 64.8835 118.422 64.8835C118.422 64.8835 104.124 68.6212 102.672 70.6683Z" fill="#EFE5E9"/>
<path d="M101.734 5.53809C101.734 5.53809 101.692 8.33609 100.989 9.3135C100.617 9.83797 100.103 10.2452 99.5056 10.4868C98.9086 10.7285 98.2546 10.7944 97.6211 10.6769C97.6211 10.6769 99.924 10.8027 101.014 11.8892C102.105 12.9757 102.509 16.1512 102.509 16.1512C102.509 16.1512 102.437 12.4303 102.993 11.5997C103.27 11.1587 103.66 10.7989 104.122 10.5571C104.584 10.3154 105.103 10.2003 105.624 10.2238C105.624 10.2238 101.414 10.3748 101.734 5.53809Z" fill="#FFD55A"/>
<path d="M110.184 17.5321C110.819 17.5321 111.334 17.0194 111.334 16.3869C111.334 15.7544 110.819 15.2417 110.184 15.2417C109.55 15.2417 109.035 15.7544 109.035 16.3869C109.035 17.0194 109.55 17.5321 110.184 17.5321Z" fill="#EFE4E8"/>
<path d="M114.789 14.3984C115.629 14.3984 116.309 13.7204 116.309 12.884C116.309 12.0476 115.629 11.3696 114.789 11.3696C113.95 11.3696 113.27 12.0476 113.27 12.884C113.27 13.7204 113.95 14.3984 114.789 14.3984Z" fill="#EFE4E8"/>
<path d="M29.4189 4.11659C30.0536 4.11659 30.5682 3.60386 30.5682 2.97138C30.5682 2.3389 30.0536 1.82617 29.4189 1.82617C28.7841 1.82617 28.2695 2.3389 28.2695 2.97138C28.2695 3.60386 28.7841 4.11659 29.4189 4.11659Z" fill="#EFE4E8"/>
<path d="M38.0201 13.2701C38.4433 13.2701 38.7864 12.9283 38.7864 12.5066C38.7864 12.085 38.4433 11.7432 38.0201 11.7432C37.597 11.7432 37.2539 12.085 37.2539 12.5066C37.2539 12.9283 37.597 13.2701 38.0201 13.2701Z" fill="#EFE4E8"/>
<path d="M30.0039 10.2034C30.8409 10.2034 31.5195 9.52732 31.5195 8.69327C31.5195 7.85923 30.8409 7.18311 30.0039 7.18311C29.1668 7.18311 28.4883 7.85923 28.4883 8.69327C28.4883 9.52732 29.1668 10.2034 30.0039 10.2034Z" fill="#EFE4E8"/>
<path d="M29.8872 82.762C29.8872 82.762 26.8181 90.5981 26.1613 92.792C25.5045 94.986 16.954 115.541 16.954 115.541C16.954 115.541 15.5815 119.904 19.2569 119.174C21.1724 118.792 23.5721 115.637 26.2581 111.338C28.0305 108.494 32.3963 100.632 32.3963 100.632L40.7406 89.9269C40.7406 89.9269 34.6824 79.5109 29.8872 82.762Z" fill="#EFACAB"/>
<path d="M29.8854 82.762C29.8854 82.762 26.8163 90.5981 26.1596 92.792C25.5028 94.986 30.1886 94.1638 30.3191 98.3671C30.3738 100.28 23.5831 115.637 26.2564 111.338C28.0288 108.494 32.3946 100.632 32.3946 100.632L40.7389 89.9269C40.7389 89.9269 34.6806 79.5109 29.8854 82.762Z" fill="url(#paint1_linear_3123_16431)"/>
<path d="M40.4065 60.9107C36.8238 60.7806 33.4979 64.3505 33.3716 65.4957C33.2453 66.6409 26.9766 86.0172 26.9766 86.0172C26.9766 86.0172 28.1259 90.6023 31.7086 92.2593C35.2913 93.9162 41.3159 93.9121 41.3159 93.9121C41.3159 93.9121 43.6187 83.0808 44.6418 74.9259C45.6648 66.771 43.985 61.0323 40.4065 60.9107Z" fill="#FFD55A"/>
<path d="M28.5421 81.2307L27.7422 83.4624C27.7422 83.4624 28.8915 88.0517 32.4742 89.7086C36.057 91.3656 42.0646 91.3614 42.0646 91.3614C42.0646 91.3614 43.6013 83.0807 44.6243 74.9258C33.5309 90.2162 28.5421 81.2307 28.5421 81.2307Z" fill="url(#paint2_linear_3123_16431)"/>
<path d="M13.3375 119.849C13.3375 119.849 9.65374 124.556 9.43902 125.466C9.22431 126.376 11.6914 129.661 11.6914 129.661C11.6914 129.661 13.2954 130.081 13.5101 129.401C13.635 128.97 13.5898 128.508 13.3838 128.109C13.3838 128.109 14.1206 127.547 14.1627 127.115C14.2048 126.683 13.4259 123.788 13.4259 123.788L13.3375 119.849Z" fill="#EFACAB"/>
<path d="M13.3375 119.849C13.3375 119.849 9.65374 124.556 9.43902 125.466C9.22431 126.376 11.6914 129.661 11.6914 129.661C11.6914 129.661 13.2954 130.081 13.5101 129.401C13.635 128.97 13.5898 128.508 13.3838 128.109C13.3838 128.109 14.1206 127.547 14.1627 127.115C14.2048 126.683 13.4259 123.788 13.4259 123.788L13.3375 119.849Z" fill="url(#paint3_linear_3123_16431)"/>
<path d="M20.2679 113.347C19.9539 113.033 19.5363 112.843 19.0926 112.813C18.6489 112.783 18.2093 112.915 17.8556 113.183C16.384 114.34 15.0705 115.684 13.9487 117.181C12.1762 119.533 10.6033 122.028 9.24609 124.64C9.24609 124.64 9.58289 130.932 9.77235 131.519C9.95532 131.947 10.1736 132.36 10.4249 132.752C10.4821 132.845 10.5623 132.922 10.6578 132.975C10.7532 133.028 10.8607 133.056 10.9701 133.056C11.0794 133.056 11.187 133.028 11.2824 132.975C11.3779 132.922 11.458 132.845 11.5153 132.752L11.9952 131.997C12.0729 131.872 12.1056 131.724 12.0879 131.578L11.7384 129.426L12.892 125.231L15.7463 122.387L16.0579 122.936C16.0579 122.936 15.3632 126.292 15.2664 127.454C15.1696 128.616 14.6896 129.552 15.2664 129.749C15.8432 129.946 16.2473 130.105 17.1104 129.329C17.9734 128.553 18.1671 125.973 18.1671 125.973C18.1671 125.973 20.7563 122.618 20.9499 120.239C21.0884 118.906 21.378 117.593 21.813 116.325C21.9215 116.002 21.9376 115.655 21.8596 115.323C21.7815 114.991 21.6123 114.687 21.3709 114.446L20.2679 113.347Z" fill="#EFACAB"/>
<path d="M70.5896 55.1723C67.3816 54.22 55.3704 55.6798 52.0656 56.1916C48.7607 56.7034 36.3328 59.1281 35.9497 63.0713C35.5665 67.0145 36.8674 86.9823 38.8967 93.9123C40.9427 100.922 40.5596 104.618 40.5596 104.618L40.4333 116.85L42.8625 119.786C42.8625 119.786 50.4068 128.071 68.8256 121.955C72.863 120.613 77.6667 119.019 78.2898 117.622C78.9128 116.225 75.3427 100.8 75.3427 100.8C75.3427 100.8 77.1362 81.6841 77.7719 73.655C78.3655 65.8147 76.6015 56.9551 70.5896 55.1723Z" fill="#22AAE2"/>
<path d="M47.5699 119.019C44.5176 120.39 44.7534 93.1487 43.3599 97.7337C41.9664 102.319 41.5706 93.9122 39.5246 80.7863C38.371 70.8444 36.2365 60.0467 35.9418 63.0712C35.5587 67.0228 36.8596 86.9822 38.8889 93.9122C40.9349 100.922 40.5518 104.618 40.5518 104.618L40.4255 116.85L42.8547 119.786C42.8547 119.786 48.1635 124.564 55.1942 124.057C55.5647 115.898 58.057 114.304 47.5699 119.019Z" fill="url(#paint4_linear_3123_16431)"/>
<path d="M70.5892 55.1723C67.3812 54.22 55.37 55.6798 52.0651 56.1916C48.7603 56.7034 36.3323 59.1281 35.9492 63.0713C45.0302 60.525 44.9671 67.6605 44.9671 67.6605C44.9671 67.6605 58.7801 73.2355 64.5352 78.4624C70.2903 83.6893 67.798 81.8183 68.5642 92.5111C69.3304 103.204 69.0862 112.03 65.6887 114.492C51.6189 124.69 40.4287 116.85 40.4287 116.85L42.8578 119.786C42.8578 119.786 50.4022 128.071 68.821 121.955C72.8584 120.613 77.662 119.019 78.2851 117.622C78.9082 116.225 75.3381 100.8 75.3381 100.8C75.3381 100.8 77.1315 81.6841 77.7673 73.655C78.3651 65.8147 76.6011 56.9551 70.5892 55.1723Z" fill="url(#paint5_linear_3123_16431)"/>
<path d="M50.7998 56.9214C50.7998 56.9214 47.9454 60.6674 46.9308 62.7943C45.571 65.672 45.1752 66.9556 45.7773 66.8759C46.3793 66.7962 54.7909 63.9311 54.7909 63.9311C54.7909 63.9311 61.8932 66.3474 63.8088 66.511C65.7243 66.6746 62.3058 56.5103 58.9504 55.6797C53.2248 54.266 50.7998 56.9214 50.7998 56.9214Z" fill="#FFD55A"/>
<path d="M46.3711 107.613C46.3711 107.613 58.8454 102.608 63.9816 97.9643C69.1178 93.3205 61.3545 109.014 46.3711 107.613Z" fill="url(#paint6_linear_3123_16431)"/>
<path d="M59.2539 108.556C59.2539 108.556 67.7665 102.578 65.6826 97.8003C65.6826 97.8003 63.3755 104.307 59.2539 108.556Z" fill="url(#paint7_linear_3123_16431)"/>
<path d="M63.9295 49.0521C63.9295 49.0521 64.0601 56.1834 57.5345 55.4241C51.009 54.6649 60.351 44.5929 63.9295 49.0521Z" fill="#212E51"/>
<path d="M44.5228 36.9999C41.1548 36.161 36.7553 39.6763 37.5215 43.2126C38.2878 46.7489 42.4136 51.0487 47.7856 46.6524C53.1575 42.2562 47.8824 37.8389 44.5228 36.9999Z" fill="#212E51"/>
<path d="M59.0736 50.2012C59.0736 50.2012 58.56 59.9501 58.4968 60.269C58.4337 60.5878 57.4106 63.6459 54.4678 63.4529C54.0848 63.4507 53.706 63.3728 53.3534 63.2236C53.0009 63.0743 52.6815 62.8568 52.414 62.5836C52.1465 62.3105 51.9361 61.987 51.7951 61.6322C51.654 61.2773 51.5852 60.8981 51.5924 60.5165L51.0156 53.2509L59.0736 50.2012Z" fill="#EFACAB"/>
<path d="M59.0736 50.2012C59.0736 50.2012 58.56 59.9501 58.4968 60.269C58.4337 60.5878 57.4106 63.6459 54.4678 63.4529C54.0848 63.4507 53.706 63.3728 53.3534 63.2236C53.0009 63.0743 52.6815 62.8568 52.414 62.5836C52.1465 62.3105 51.9361 61.987 51.7951 61.6322C51.654 61.2773 51.5852 60.8981 51.5924 60.5165L51.0156 53.2509L59.0736 50.2012Z" fill="url(#paint8_linear_3123_16431)"/>
<path d="M47.3085 35.7036C47.3085 35.7036 43.5995 37.2012 43.7258 41.7904C43.8521 46.3797 46.1592 58.7379 50.7607 59.2497C52.2048 59.4091 54.7687 58.5114 56.9831 57.0515C59.7365 55.2309 61.6141 51.5142 62.9108 47.9066C65.2137 41.4087 56.2632 31.6262 47.3085 35.7036Z" fill="#EFACAB"/>
<path d="M47.3085 35.7036C47.3085 35.7036 43.5995 37.2012 43.7258 41.7904C48.3947 43.288 48.3947 38.7617 52.9878 39.2735C54.4319 39.4329 60.4648 50.2893 62.6709 48.8295C65.4284 47.0131 61.6184 51.5143 62.894 47.9066C65.2137 41.4087 56.2632 31.6262 47.3085 35.7036Z" fill="url(#paint9_linear_3123_16431)"/>
<path d="M66.109 45.7422C70.74 45.5618 72.1209 38.7325 68.0287 35.0368C66.6639 33.7816 65.036 32.8445 63.263 32.2933C63.263 32.2933 65.0859 28.5179 60.3539 27.2594C55.6218 26.0009 54.4388 27.6118 54.4388 27.6118C54.4388 27.6118 51.7192 22.8967 49.13 23.7567C46.9324 24.4866 47.446 27.3894 47.446 27.3894C47.446 27.3894 40.71 24.109 37.763 26.3365C33.132 29.8435 35.658 35.7457 38.4366 37.839C41.9225 40.4524 48.7006 38.2207 48.7006 38.2207C48.7006 38.2207 45.4336 40.6705 46.9745 41.95C48.1238 42.9064 48.8606 42.2982 51.9297 40.6412C54.9987 38.9842 54.6451 38.6024 54.6451 38.6024C54.6451 38.6024 59.4571 45.9939 66.109 45.7422Z" fill="#212E51"/>
<path d="M60.2227 43.796L61.7593 48.3852L64.3485 43.8925C64.3485 43.8925 61.1825 42.5543 60.2227 43.796Z" fill="#212E51"/>
<path d="M61.2454 47.3322C61.2454 47.3322 62.1127 45.7424 63.0684 45.1047C64.024 44.4671 65.5944 45.0376 65.9943 46.2499C66.3943 47.4623 65.5312 51.4097 62.399 51.3467C59.2667 51.2838 61.2454 47.3322 61.2454 47.3322Z" fill="#EFACAB"/>
<path d="M65.2276 46.5854C64.3856 44.4082 62.1122 45.7464 63.0678 45.1046C64.0235 44.4628 65.5938 45.0375 65.9938 46.2498C66.3937 47.4621 65.5307 51.4095 62.3984 51.3466C65.3076 49.5848 65.8043 48.0662 65.2276 46.5854Z" fill="url(#paint10_linear_3123_16431)"/>
<path d="M63.8601 47.0971C64.399 47.03 64.9421 47.7473 64.5758 48.5612C64.2096 49.375 63.3128 49.8196 62.955 49.4882C62.5971 49.1568 62.534 48.7541 62.9129 48.708C63.2918 48.6618 63.9486 48.708 63.7886 48.2885C63.6286 47.869 63.3002 48.0829 63.1865 47.7557C63.0729 47.4285 63.2792 47.1643 63.8601 47.0971Z" fill="#EFACAB"/>
<path d="M81.1692 50.164C81.1692 50.164 89.1051 46.4305 92.191 45.0588C95.2769 43.687 99.0744 42.89 101.39 46.9507C103.705 51.0113 103.95 52.4418 99.5375 55.609C95.1254 58.7761 84.4151 64.6867 84.4151 64.6867C84.4151 64.6867 74.9089 55.2021 81.1692 50.164Z" fill="#EFACAB"/>
<path d="M87.6232 47.2402C87.6232 47.2402 89.063 49.8662 90.246 51.8882L86.457 47.794L87.6232 47.2402Z" fill="url(#paint11_linear_3123_16431)"/>
<path d="M66.2357 55.0384C66.2357 55.0384 83.3747 48.5405 84.7808 48.5405C84.7808 48.5405 87.0332 51.5273 90.4096 57.0772C92.9693 61.2721 93.2219 64.4686 93.2219 64.4686L77.6196 74.2847C77.6196 74.2847 65.8526 72.2376 66.2357 55.0384Z" fill="#FFD55A"/>
<path d="M79.3809 50.3109C79.3809 50.3109 82.0669 49.2119 83.5067 48.8008C83.5067 48.8008 85.1654 51.9847 88.3651 58.3568C90.8405 63.29 90.7942 66.13 90.7942 66.13L77.6211 74.2891C77.6211 74.2891 85.5528 69.574 85.4222 63.8353C85.2917 58.0967 79.3809 50.3109 79.3809 50.3109Z" fill="url(#paint12_linear_3123_16431)"/>
<path d="M95.4018 56.3346C91.3771 55.4075 87.727 47.7225 85.6178 43.4772C77.5598 27.2933 74.1076 23.5011 75.4506 21.9112C77.7703 19.1551 79.9721 17.1793 84.5316 23.3123C88.7079 28.9377 102.782 45.1887 103.363 48.7838C104.192 53.9267 98.7277 57.0981 95.4018 56.3346Z" fill="#EFACAB"/>
<path d="M99.0492 55.8103C99.0492 55.8103 103.731 51.6993 101.062 47.7813C92.1406 34.6847 79.9737 17.1794 84.5331 23.3123C88.7094 28.9377 102.784 45.1888 103.364 48.7838C104.194 53.9268 99.0492 55.8103 99.0492 55.8103Z" fill="url(#paint13_linear_3123_16431)"/>
<path d="M82.9953 21.3994L81.6523 23.7192C81.6523 23.7192 84.0563 23.4843 84.1784 22.8467C83.4163 21.9783 82.9953 21.3994 82.9953 21.3994Z" fill="url(#paint14_linear_3123_16431)"/>
<path d="M80.9135 25.7322C80.9135 25.7322 82.5133 24.6625 82.9301 21.8771C83.3132 19.2972 83.1195 17.7367 82.0881 15.8532C81.0566 13.9696 79.2758 10.8193 79.2758 10.8193C79.2758 10.8193 75.6299 2.635 75.2005 1.82119C74.7711 1.00738 73.9375 1.10386 73.7102 1.4856C73.4828 1.86733 73.9038 3.5411 74.1312 4.97576C74.3585 6.41042 75.8404 11.2052 75.8404 11.2052C75.8404 11.2052 73.7312 7.89962 72.8892 6.20068C72.0261 4.43462 70.5568 1.67856 69.8832 0.369751C69.538 -0.301435 68.1487 -0.0497408 68.2203 1.04094C68.414 3.90606 71.3062 11.0458 72.0093 12.6692C72.0093 12.6692 69.0623 8.05483 67.9467 6.2636C66.831 4.47237 66.5068 3.41945 65.6143 3.49496C64.4313 3.58725 65.2607 5.94479 65.7406 7.22004C66.1616 8.34008 67.9551 11.675 69.2602 14.3262C69.8075 15.4421 69.4538 16.3691 69.8664 17.0781C71.2557 19.4692 73.4155 24.5198 76.5351 26.0971C79.6547 27.6744 80.9135 25.7322 80.9135 25.7322Z" fill="#EFACAB"/>
<path d="M77.6084 25.1783C77.6084 25.1783 73.1795 26.4074 71.988 26.3655C70.7966 26.3235 68.8811 24.3729 67.4749 23.4836C66.0688 22.5943 63.4712 20.7233 64.1953 20.0857C64.9194 19.4481 65.6015 18.8566 67.1423 19.704C67.9271 20.1023 68.6457 20.6187 69.2726 21.2351C69.2726 21.2351 72.2533 19.4523 73.9541 20.0438C75.655 20.6352 79.3135 24.289 77.6084 25.1783Z" fill="#EFACAB"/>
<path d="M70.3959 17.5103C70.3959 17.5103 67.7983 16.3986 67.2173 16.3986C66.7079 16.3986 66.2406 17.8836 66.2406 17.8836C66.2406 17.8836 65.8996 19.1127 65.5586 19.4525C64.826 20.1824 62.1906 19.9098 63.1294 18.0934C63.9714 16.4406 64.7924 13.7223 64.9187 13.6384C65.045 13.5545 69.1792 13.2986 70.4548 14.0579C71.7305 14.8172 71.8399 17.8081 70.3959 17.5103Z" fill="#EFACAB"/>
<path d="M76.7905 11.4906C76.7905 11.4906 72.8541 11.2976 70.3281 14.104L76.7905 11.4906Z" fill="url(#paint15_linear_3123_16431)"/>
<path d="M78.3216 15.2827C78.3216 15.2827 79.2225 18.6764 81.1086 21.1556C81.1086 21.0172 75.7029 18.4331 78.3216 15.2827Z" fill="url(#paint16_linear_3123_16431)"/>
</g>
<path d="M80.9135 25.7322C80.9135 25.7322 82.5133 24.6625 82.9301 21.8771C83.3132 19.2972 83.1195 17.7367 82.0881 15.8532C81.0566 13.9696 79.2758 10.8193 79.2758 10.8193C79.2758 10.8193 75.6299 2.635 75.2005 1.82119C74.7711 1.00738 73.9375 1.10386 73.7102 1.4856C73.4828 1.86733 73.9038 3.5411 74.1312 4.97576C74.3585 6.41042 75.8404 11.2052 75.8404 11.2052C75.8404 11.2052 73.7312 7.89962 72.8892 6.20068C72.0261 4.43462 70.5568 1.67856 69.8832 0.369751C69.538 -0.301435 68.1487 -0.0497408 68.2203 1.04094C68.414 3.90606 71.3062 11.0458 72.0093 12.6692C72.0093 12.6692 69.0623 8.05483 67.9467 6.2636C66.831 4.47237 66.5068 3.41945 65.6143 3.49496C64.4313 3.58725 65.2607 5.94479 65.7406 7.22004C66.1616 8.34008 67.9551 11.675 69.2602 14.3262C69.8075 15.4421 69.4538 16.3691 69.8664 17.0781C71.2557 19.4692 73.4155 24.5198 76.5351 26.0971C79.6547 27.6744 80.9135 25.7322 80.9135 25.7322Z" fill="#EFACAB"/>
<path d="M77.6084 25.1783C77.6084 25.1783 73.1795 26.4074 71.988 26.3655C70.7966 26.3235 68.8811 24.3729 67.4749 23.4836C66.0688 22.5943 63.4712 20.7233 64.1953 20.0857C64.9194 19.4481 65.6015 18.8566 67.1423 19.704C67.9271 20.1023 68.6457 20.6187 69.2726 21.2351C69.2726 21.2351 72.2533 19.4523 73.9541 20.0438C75.655 20.6352 79.3135 24.289 77.6084 25.1783Z" fill="#EFACAB"/>
<path d="M70.3959 17.5103C70.3959 17.5103 67.7983 16.3986 67.2173 16.3986C66.7079 16.3986 66.2406 17.8836 66.2406 17.8836C66.2406 17.8836 65.8996 19.1127 65.5586 19.4525C64.826 20.1824 62.1906 19.9098 63.1294 18.0934C63.9714 16.4406 64.7924 13.7223 64.9187 13.6384C65.045 13.5545 69.1792 13.2986 70.4548 14.0579C71.7305 14.8172 71.8399 17.8081 70.3959 17.5103Z" fill="#EFACAB"/>
<path d="M76.7905 11.4906C76.7905 11.4906 72.8541 11.2976 70.3281 14.104L76.7905 11.4906Z" fill="url(#paint17_linear_3123_16431)"/>
<path d="M78.3216 15.2827C78.3216 15.2827 79.2225 18.6764 81.1086 21.1556C81.1086 21.0172 75.7029 18.4331 78.3216 15.2827Z" fill="url(#paint18_linear_3123_16431)"/>
</g>
<defs>
<radialGradient id="paint0_radial_3123_16431" cx="0" cy="0" r="1" gradientUnits="userSpaceOnUse" gradientTransform="translate(31.2 30.4196) rotate(73.1278) scale(94.0609)">
<stop stop-color="#7A77EF"/>
<stop offset="1" stop-color="#2E2ACF"/>
</radialGradient>
<linearGradient id="paint1_linear_3123_16431" x1="21.3938" y1="103.145" x2="71.2356" y2="58.2115" gradientUnits="userSpaceOnUse">
<stop stop-color="#222E51" stop-opacity="0"/>
<stop offset="1" stop-color="#231F20"/>
</linearGradient>
<linearGradient id="paint2_linear_3123_16431" x1="36.3306" y1="81.99" x2="29.1839" y2="109.337" gradientUnits="userSpaceOnUse">
<stop offset="0.09" stop-color="#222E51" stop-opacity="0"/>
<stop offset="1" stop-color="#231F20"/>
</linearGradient>
<linearGradient id="paint3_linear_3123_16431" x1="12.2639" y1="128.696" x2="10.8217" y2="118.891" gradientUnits="userSpaceOnUse">
<stop stop-color="#222E51" stop-opacity="0"/>
<stop offset="1" stop-color="#231F20"/>
</linearGradient>
<linearGradient id="paint4_linear_3123_16431" x1="51.0516" y1="91.0429" x2="5.2538" y2="110.28" gradientUnits="userSpaceOnUse">
<stop stop-color="white" stop-opacity="0"/>
<stop offset="1" stop-color="white"/>
</linearGradient>
<linearGradient id="paint5_linear_3123_16431" x1="45.5817" y1="96.8697" x2="135.702" y2="41.6535" gradientUnits="userSpaceOnUse">
<stop offset="0.09" stop-color="#222E51" stop-opacity="0"/>
<stop offset="1" stop-color="#231F20"/>
</linearGradient>
<linearGradient id="paint6_linear_3123_16431" x1="57.275" y1="98.3502" x2="49.6505" y2="123.409" gradientUnits="userSpaceOnUse">
<stop offset="0.08" stop-color="#222E51" stop-opacity="0"/>
<stop offset="1" stop-color="#231F20"/>
</linearGradient>
<linearGradient id="paint7_linear_3123_16431" x1="63.8554" y1="100.351" x2="56.2309" y2="125.41" gradientUnits="userSpaceOnUse">
<stop offset="0.09" stop-color="#222E51" stop-opacity="0"/>
<stop offset="1" stop-color="#231F20"/>
</linearGradient>
<linearGradient id="paint8_linear_3123_16431" x1="54.0974" y1="60.097" x2="56.6227" y2="47.2361" gradientUnits="userSpaceOnUse">
<stop stop-color="#222E51" stop-opacity="0"/>
<stop offset="1" stop-color="#231F20"/>
</linearGradient>
<linearGradient id="paint9_linear_3123_16431" x1="53.4383" y1="45.31" x2="57.8093" y2="31.8476" gradientUnits="userSpaceOnUse">
<stop stop-color="#222E51" stop-opacity="0"/>
<stop offset="1" stop-color="#231F20"/>
</linearGradient>
<linearGradient id="paint10_linear_3123_16431" x1="64.5708" y1="47.4705" x2="67.2986" y2="45.9815" gradientUnits="userSpaceOnUse">
<stop stop-color="#222E51" stop-opacity="0"/>
<stop offset="0.66" stop-color="#232431" stop-opacity="0.66"/>
<stop offset="1" stop-color="#231F20"/>
</linearGradient>
<linearGradient id="paint11_linear_3123_16431" x1="86.8991" y1="47.3367" x2="93.7109" y2="55.7086" gradientUnits="userSpaceOnUse">
<stop stop-color="#222E51" stop-opacity="0"/>
<stop offset="1" stop-color="#231F20"/>
</linearGradient>
<linearGradient id="paint12_linear_3123_16431" x1="78.9388" y1="61.612" x2="109.124" y2="60.3276" gradientUnits="userSpaceOnUse">
<stop offset="0.09" stop-color="#222E51" stop-opacity="0"/>
<stop offset="1" stop-color="#231F20"/>
</linearGradient>
<linearGradient id="paint13_linear_3123_16431" x1="92.89" y1="38.2588" x2="103.694" y2="33.6963" gradientUnits="userSpaceOnUse">
<stop stop-color="#222E51" stop-opacity="0"/>
<stop offset="1" stop-color="#231F20"/>
</linearGradient>
<linearGradient id="paint14_linear_3123_16431" x1="82.1575" y1="22.2803" x2="84.387" y2="25.2497" gradientUnits="userSpaceOnUse">
<stop offset="0.07" stop-color="#222E51" stop-opacity="0"/>
<stop offset="1" stop-color="#231F20"/>
</linearGradient>
<linearGradient id="paint15_linear_3123_16431" x1="73.8435" y1="13.6007" x2="72.0322" y2="8.43684" gradientUnits="userSpaceOnUse">
<stop stop-color="#222E51" stop-opacity="0"/>
<stop offset="1" stop-color="#231F20"/>
</linearGradient>
<linearGradient id="paint16_linear_3123_16431" x1="81.1591" y1="17.6235" x2="73.8118" y2="20.6371" gradientUnits="userSpaceOnUse">
<stop offset="0.07" stop-color="#222E51" stop-opacity="0"/>
<stop offset="1" stop-color="#231F20"/>
</linearGradient>
<linearGradient id="paint17_linear_3123_16431" x1="73.8435" y1="13.6007" x2="72.0322" y2="8.43684" gradientUnits="userSpaceOnUse">
<stop stop-color="#222E51" stop-opacity="0"/>
<stop offset="1" stop-color="#231F20"/>
</linearGradient>
<linearGradient id="paint18_linear_3123_16431" x1="81.1591" y1="17.6235" x2="73.8118" y2="20.6371" gradientUnits="userSpaceOnUse">
<stop offset="0.07" stop-color="#222E51" stop-opacity="0"/>
<stop offset="1" stop-color="#231F20"/>
</linearGradient>
<clipPath id="clip0_3123_16431">
<rect width="117" height="120" fill="white"/>
</clipPath>
</defs>
</svg>
