<svg width="14" height="17" viewBox="0 0 14 17" fill="none" xmlns="http://www.w3.org/2000/svg">
<path d="M4.91309 14.6086C5.95656 15.5362 8.04352 15.5362 9.087 14.6086" stroke="#222222" stroke-width="1.5" stroke-linecap="round" stroke-linejoin="round"/>
<path fill-rule="evenodd" clip-rule="evenodd" d="M7.69471 0.731883C7.69533 0.719884 7.69564 0.707805 7.69564 0.695652C7.69564 0.311454 7.38418 0 6.99999 0C6.61579 0 6.30433 0.311454 6.30433 0.695652C6.30433 0.707813 6.30465 0.719901 6.30526 0.731909C3.97646 1.06757 1.78516 3.68659 2.13045 6.6087C2.30929 7.50288 1.7462 7.97661 1.16011 8.4697C0.606284 8.93563 0.0319283 9.41884 0.0436397 10.2904C0.0436397 11.5119 0.739123 12.1739 1.76054 12.5022C1.76054 12.5022 3.63121 13.2174 7.00007 13.2174C10.3689 13.2174 12.2396 12.5022 12.2396 12.5022C13.261 12.1739 13.9567 11.4783 13.9565 10.2904C13.9564 9.41133 13.3824 8.92794 12.8316 8.46415C12.2481 7.97277 11.6908 7.50338 11.8697 6.6087C11.9318 6.08333 11.9119 5.56776 11.8239 5.0735C11.4606 5.38029 10.991 5.56522 10.4782 5.56522C10.4454 5.56522 10.4127 5.56445 10.3802 5.56295C10.4117 5.83288 10.4145 6.10867 10.3852 6.38659C10.2436 7.18353 10.415 7.88231 10.7791 8.46139C11.0927 8.96027 11.5319 9.3304 11.7933 9.55075L11.8154 9.56936C12.458 10.1114 12.4574 10.182 12.4566 10.2797L12.4565 10.2906C12.4565 10.5713 12.3826 10.6935 12.3268 10.7608C12.2548 10.8476 12.0997 10.9716 11.7806 11.0742L11.7419 11.0866L11.71 11.0988L11.7089 11.0992C11.7034 11.1012 11.6909 11.1056 11.6714 11.1122C11.6324 11.1254 11.5655 11.1472 11.4715 11.1749C11.2834 11.2302 10.9868 11.3089 10.5873 11.3893C9.78859 11.5499 8.57793 11.7174 7.00007 11.7174C5.42222 11.7174 4.21155 11.5499 3.41282 11.3893C3.01333 11.3089 2.71671 11.2302 2.52864 11.1749C2.43461 11.1472 2.36774 11.1254 2.32875 11.1122C2.30926 11.1056 2.29674 11.1012 2.29128 11.0992L2.29014 11.0988L2.25823 11.0866L2.21953 11.0742C1.88346 10.9661 1.73312 10.8445 1.66793 10.7669C1.62207 10.7122 1.54364 10.5961 1.54364 10.2904V10.2803L1.5435 10.2702L1.54306 10.2571C1.53979 10.1843 1.53663 10.114 2.17502 9.57606L2.19734 9.55726C2.46012 9.33603 2.90038 8.96538 3.21548 8.46717C3.58112 7.88903 3.7573 7.18819 3.61494 6.38666C3.49981 5.29491 3.88081 4.2361 4.54462 3.43611C5.23324 2.60621 6.10074 2.19565 6.80459 2.19565H7.19555C7.61805 2.19565 8.09952 2.34359 8.56587 2.64135C8.77664 2.16041 9.16351 1.77421 9.64492 1.56432C9.0468 1.12419 8.37665 0.830139 7.69471 0.731883Z" fill="#222222"/>
<ellipse cx="10.4782" cy="3.47822" rx="1.3913" ry="1.3913" fill="#222222"/>
</svg>
