<svg width="16" height="16" viewBox="0 0 16 16" fill="none" xmlns="http://www.w3.org/2000/svg">
<path d="M1.68817 6.46142C1.16121 6.46142 0.754825 6.03631 0.769796 5.54591C0.803199 4.4517 0.891371 3.80404 1.08375 3.28721C1.44803 2.30854 1.94384 1.74477 2.70004 1.3209C3.35215 0.955387 4.38365 0.75 6.5188 0.75H9.4812C11.6163 0.75 12.6479 0.955387 13.3 1.3209C14.0562 1.74477 14.552 2.30854 14.9163 3.28721C15.1086 3.80403 15.1968 4.4517 15.2302 5.5459C15.2452 6.03631 14.8388 6.46142 14.3118 6.46142C13.3246 6.46142 12.7709 7.38251 12.7709 8.18196C12.7709 8.9814 13.3246 9.90249 14.3118 9.90249C14.8414 9.90249 15.2389 10.3287 15.2169 10.8046C15.1759 11.6937 15.0861 12.2564 14.9163 12.7128C14.552 13.6915 14.0562 14.2552 13.3 14.6791C12.6479 15.0446 11.6164 15.25 9.4812 15.25H6.5188C4.38365 15.25 3.35214 15.0446 2.70004 14.6791C1.94384 14.2552 1.44803 13.6915 1.08375 12.7128C0.913856 12.2564 0.824112 11.6937 0.783074 10.8046C0.761104 10.3287 1.15855 9.90249 1.68817 9.90249C2.67537 9.90249 3.22906 8.9814 3.22906 8.18196C3.22906 7.38251 2.67537 6.46142 1.68817 6.46142Z" stroke="#222222" stroke-width="1.5"/>
<path d="M10 6L6 10M6 6V6.66667M10 9.33333V10" stroke="#222222" stroke-width="1.5" stroke-linecap="round" stroke-linejoin="round"/>
</svg>
