<svg width="16" height="16" viewBox="0 0 16 16" fill="none" xmlns="http://www.w3.org/2000/svg">
<path d="M11.1998 9.59998C13.3508 9.59998 15.1053 11.2978 15.1961 13.4265L15.1998 13.6V15.2C15.1998 15.6418 14.8416 16 14.3998 16C13.9895 16 13.6514 15.6911 13.6052 15.2933L13.5998 15.2V13.6C13.5998 12.3218 12.6007 11.277 11.3408 11.204L11.1998 11.2H4.7998C3.52166 11.2 2.47688 12.1991 2.40388 13.459L2.3998 13.6V15.2C2.3998 15.6418 2.04163 16 1.5998 16C1.18954 16 0.851399 15.6911 0.805187 15.2933L0.799805 15.2V13.6C0.799805 11.449 2.49765 9.69452 4.62629 9.60367L4.7998 9.59998H11.1998Z" fill="#222222"/>
<path fill-rule="evenodd" clip-rule="evenodd" d="M3.99976 4C3.99976 1.79086 5.79062 0 7.99976 0C10.2089 0 11.9998 1.79086 11.9998 4C11.9998 6.20914 10.2089 8 7.99976 8C5.79062 8 3.99976 6.20914 3.99976 4ZM10.3999 3.99998C10.3999 2.67449 9.32534 1.59998 7.99985 1.59998C6.67437 1.59998 5.59985 2.67449 5.59985 3.99998C5.59985 5.32546 6.67437 6.39998 7.99985 6.39998C9.32534 6.39998 10.3999 5.32546 10.3999 3.99998Z" fill="#222222"/>
</svg>
