<svg width="58" height="60" viewBox="0 0 58 60" fill="none" xmlns="http://www.w3.org/2000/svg">
<path d="M0.752503 31.2329H7.79062V10.3917H0.752503V31.2329ZM0 3.97721C0 6.23096 1.94766 7.99861 4.24943 7.99861C6.59547 7.99861 8.4546 6.23096 8.4546 3.97721C8.4546 1.72346 6.59547 0 4.24943 0C1.94766 0 0 1.72346 0 3.97721Z" fill="#342D71"/>
<path d="M11.8486 16.3497H18.6429L11.8486 25.947V30.9848H27.3429V25.1142H20.3L27.3429 15.4402V10.3917H11.8486V16.3497Z" fill="#342D71"/>
<path d="M50.2968 31.2329H57.3359V10.3917H50.2968V31.2329ZM49.5442 3.97721C49.5442 6.23096 51.4922 7.99861 53.7942 7.99861C56.1406 7.99861 58 6.23096 58 3.97721C58 1.72346 56.1406 0 53.7942 0C51.4922 0 49.5442 1.72346 49.5442 3.97721Z" fill="#342D71"/>
<path d="M30.6571 16.3497H37.4523L30.6571 25.947V30.9848H46.1534V25.1142H39.1097L46.1534 15.4402V10.3917H30.6571V16.3497Z" fill="#342D71"/>
<path d="M48.3653 42.2167C42.8799 46.1883 36.2583 48.3169 29.4672 48.2916C22.676 48.2663 16.0708 46.0886 10.6155 42.0762L14.9324 36.3009C19.1463 39.4002 24.2485 41.0824 29.4944 41.102C34.7402 41.1215 39.855 39.4773 44.0922 36.4094L48.3653 42.2167Z" fill="#342D71"/>
</svg>
