<svg width="51" height="42" viewBox="0 0 51 42" fill="none" xmlns="http://www.w3.org/2000/svg">
<path fill-rule="evenodd" clip-rule="evenodd" d="M6.35233 6.41529C5.64068 7.13005 4.75987 7.48744 3.7099 7.48744C2.65993 7.48744 1.77912 7.13005 1.06747 6.41529C0.355824 5.70053 0 4.81586 0 3.76129C0 3.24573 0.0991638 2.75945 0.297492 2.30247C0.49582 1.8455 0.764146 1.4471 1.10247 1.1073C1.44079 0.767491 1.83745 0.497991 2.29244 0.298794C2.74743 0.099598 3.21991 0 3.7099 0C4.22322 0 4.70737 0.099598 5.16236 0.298794C5.61735 0.497991 6.00817 0.767491 6.33483 1.1073C6.66149 1.4471 6.92398 1.8455 7.12231 2.30247C7.32064 2.75945 7.4198 3.24573 7.4198 3.76129C7.4198 4.81586 7.06398 5.70053 6.35233 6.41529ZM6.89493 9.38532V27.6997H0.525103V9.38532H6.89493ZM24.0093 27.6997V22.5323H17.7444L23.8343 13.6036V9.38532H10.4646V14.5527H16.4845L10.3246 23.4814V27.6997H24.0093ZM40.0738 22.5323V27.6997H26.3892V23.4814L32.5491 14.5527H26.5292V9.38532H39.8989V13.6036L33.809 22.5323H40.0738ZM46.6536 7.48744C47.7036 7.48744 48.5844 7.13005 49.296 6.41529C50.0077 5.70053 50.3635 4.81586 50.3635 3.76129C50.3635 3.24573 50.2644 2.75945 50.066 2.30247C49.8677 1.8455 49.6052 1.4471 49.2785 1.1073C48.9519 0.767491 48.5611 0.497991 48.1061 0.298794C47.6511 0.099598 47.1669 0 46.6536 0C46.1636 0 45.6911 0.099598 45.2362 0.298794C44.7812 0.497991 44.3845 0.767491 44.0462 1.1073C43.7079 1.4471 43.4395 1.8455 43.2412 2.30247C43.0429 2.75945 42.9437 3.24573 42.9437 3.76129C42.9437 4.81586 43.2995 5.70053 44.0112 6.41529C44.7228 7.13005 45.6036 7.48744 46.6536 7.48744ZM49.8387 9.38532V27.6997H43.4688V9.38532H49.8387Z" fill="#5920BC"/>
<path d="M42.0567 37.0775C37.1722 40.3167 31.4347 42.03 25.5739 41.9996C19.713 41.9691 13.9936 40.1962 9.14307 36.9064L12.5847 31.832C16.4286 34.4392 20.9611 35.8441 25.6057 35.8683C30.2503 35.8924 34.7972 34.5346 38.668 31.9676L42.0567 37.0775Z" fill="#5920BC"/>
</svg>
