<svg width="18" height="20" viewBox="0 0 18 20" fill="none" xmlns="http://www.w3.org/2000/svg">
<path fill-rule="evenodd" clip-rule="evenodd" d="M0 15.8333C0 19.2645 1.5885 20 9 20C16.4115 20 18 19.2645 18 15.8333C18 12.402 16.4115 11.6666 9 11.6666C1.5885 11.6666 0 12.402 0 15.8333ZM1.63636 15.8333C1.63636 16.5911 1.72989 16.9828 1.83407 17.1998C1.90796 17.3538 2.02857 17.5151 2.39782 17.6861C2.82055 17.8818 3.50762 18.0576 4.63149 18.1732C5.73968 18.2872 7.16332 18.3333 9 18.3333C10.8367 18.3333 12.2603 18.2872 13.3685 18.1732C14.4924 18.0576 15.1795 17.8818 15.6022 17.6861C15.9714 17.5151 16.092 17.3538 16.1659 17.1998C16.2701 16.9828 16.3636 16.5911 16.3636 15.8333C16.3636 15.0755 16.2701 14.6838 16.1659 14.4668C16.092 14.3128 15.9714 14.1515 15.6022 13.9805C15.1795 13.7848 14.4924 13.609 13.3685 13.4934C12.2603 13.3794 10.8367 13.3333 9 13.3333C7.16332 13.3333 5.73968 13.3794 4.63149 13.4934C3.50762 13.609 2.82055 13.7848 2.39782 13.9805C2.02857 14.1515 1.90796 14.3128 1.83407 14.4668C1.72989 14.6838 1.63636 15.0755 1.63636 15.8333Z" fill="white"/>
<path fill-rule="evenodd" clip-rule="evenodd" d="M4.09082 5C4.09082 7.76142 6.2887 10 8.99991 10C11.7111 10 13.909 7.76142 13.909 5C13.909 2.23858 11.7111 0 8.99991 0C6.2887 0 4.09082 2.23858 4.09082 5ZM5.72718 5C5.72718 6.84095 7.19243 8.33333 8.99991 8.33333C10.8074 8.33333 12.2726 6.84095 12.2726 5C12.2726 3.15905 10.8074 1.66667 8.99991 1.66667C7.19243 1.66667 5.72718 3.15905 5.72718 5Z" fill="white"/>
</svg>
