<svg width="19" height="18" viewBox="0 0 19 18" fill="none" xmlns="http://www.w3.org/2000/svg">
<path d="M12.0312 7.5L8.30076 11.25L6.80859 9.75" stroke="#5920BC" stroke-width="1.5" stroke-linecap="round" stroke-linejoin="round"/>
<path d="M7.69713 1.42397C8.37496 0.525342 9.71884 0.525342 10.3967 1.42397L11.2432 2.5463C11.4282 2.79146 11.7303 2.91726 12.0335 2.87535L13.4216 2.6835C14.533 2.52988 15.4832 3.48514 15.3304 4.60239L15.1396 5.99774C15.0979 6.30254 15.223 6.60624 15.4669 6.79214L16.5834 7.64314C17.4773 8.32453 17.4773 9.67547 16.5834 10.3569L15.4669 11.2079C15.223 11.3938 15.0979 11.6975 15.1396 12.0023L15.3304 13.3976C15.4832 14.5149 14.533 15.4701 13.4216 15.3165L12.0335 15.1247C11.7303 15.0827 11.4282 15.2085 11.2432 15.4537L10.3967 16.576C9.71884 17.4747 8.37496 17.4747 7.69713 16.576L6.85056 15.4537C6.66564 15.2085 6.36352 15.0827 6.06031 15.1247L4.67224 15.3165C3.56083 15.4701 2.61056 14.5149 2.76337 13.3976L2.95422 12.0023C2.99591 11.6975 2.87077 11.3938 2.62689 11.2079L1.51042 10.3569C0.61648 9.67547 0.61648 8.32453 1.51042 7.64314L2.62689 6.79214C2.87077 6.60624 2.99591 6.30254 2.95422 5.99774L2.76337 4.60238C2.61056 3.48514 3.56083 2.52988 4.67224 2.6835L6.06031 2.87535C6.36352 2.91726 6.66564 2.79146 6.85056 2.5463L7.69713 1.42397Z" stroke="#5920BC" stroke-width="1.5"/>
</svg>
