<svg width="21" height="20" viewBox="0 0 21 20" fill="none" xmlns="http://www.w3.org/2000/svg">
<path d="M0.711792 10C0.711792 12.0531 0.82155 13.6859 1.10824 14.9827C1.39432 16.2767 1.85323 17.2205 2.54093 17.9118C3.22852 18.603 4.16707 19.0641 5.45376 19.3516C6.74335 19.6397 8.36734 19.75 10.4096 19.75C12.4519 19.75 14.0759 19.6397 15.3654 19.3516C16.6521 19.0641 17.5907 18.603 18.2783 17.9118C18.966 17.2205 19.4249 16.2767 19.711 14.9827C19.9977 13.6859 20.1074 12.0531 20.1074 10C20.1074 7.94692 19.9977 6.31409 19.711 5.01733C19.4249 3.72334 18.966 2.77949 18.2783 2.08819C17.5907 1.39699 16.6521 0.935894 15.3654 0.648438C14.0759 0.360332 12.4519 0.25 10.4096 0.25C8.36734 0.25 6.74335 0.360332 5.45376 0.648438C4.16707 0.935894 3.22852 1.39699 2.54093 2.08819C1.85323 2.77949 1.39432 3.72334 1.10824 5.01733C0.82155 6.31409 0.711792 7.94692 0.711792 10Z" fill="white" stroke="#5920BC" stroke-width="0.5" stroke-linecap="round" stroke-linejoin="round"/>
<path d="M4.27698 9.99996C4.27698 11.3611 4.35018 12.421 4.53342 13.2498C4.71543 14.0731 4.9993 14.6372 5.39938 15.0394C5.79926 15.4414 6.35973 15.7263 7.17763 15.909C8.00134 16.093 9.05499 16.1666 10.4088 16.1666C11.7627 16.1666 12.8163 16.093 13.6401 15.909C14.458 15.7263 15.0184 15.4414 15.4183 15.0394C15.8184 14.6372 16.1023 14.0731 16.2843 13.2498C16.4675 12.421 16.5407 11.3611 16.5407 9.99996C16.5407 8.63881 16.4675 7.57897 16.2843 6.75013C16.1023 5.92684 15.8184 5.36269 15.4183 4.9605C15.0184 4.55853 14.458 4.27362 13.6401 4.0909C12.8163 3.90688 11.7627 3.83329 10.4088 3.83329C9.05499 3.83329 8.00134 3.90688 7.17763 4.0909C6.35973 4.27362 5.79926 4.55853 5.39938 4.9605C4.9993 5.36269 4.71543 5.92684 4.53342 6.75013C4.35018 7.57897 4.27698 8.63881 4.27698 9.99996Z" fill="#5920BC" stroke="#5920BC" stroke-linecap="round" stroke-linejoin="round"/>
<path d="M10.4088 6.94434V9.99989M10.4088 13.0554V9.99989M10.4088 9.99989L13.1721 8.33322M10.4088 9.99989L7.64551 11.6666M10.4088 9.99989L13.1721 11.6666L7.64551 8.33322" stroke="white" stroke-linecap="round" stroke-linejoin="round"/>
</svg>
