<svg width="12" height="11" viewBox="0 0 12 11" fill="none" xmlns="http://www.w3.org/2000/svg">
<path d="M5.19028 1.1065C5.41227 0.654898 6.0561 0.654897 6.27809 1.1065L7.43793 3.46605C7.52594 3.6451 7.69643 3.76936 7.89382 3.79833L10.4927 4.17978C10.9888 4.2526 11.1869 4.86207 10.8284 5.21269L8.94565 7.0542C8.80342 7.19332 8.73852 7.39338 8.77202 7.5895L9.21579 10.1878C9.30041 10.6832 8.77984 11.0604 8.33536 10.8257L6.0172 9.60151C5.84011 9.50799 5.62826 9.50799 5.45117 9.60151L3.13301 10.8257C2.68854 11.0604 2.16796 10.6832 2.25259 10.1878L2.69636 7.5895C2.72985 7.39338 2.66496 7.19332 2.52272 7.0542L0.639946 5.21269C0.281464 4.86207 0.479579 4.2526 0.975708 4.17978L3.57456 3.79833C3.77195 3.76936 3.94244 3.6451 4.03045 3.46605L5.19028 1.1065Z" fill="#FFC107"/>
</svg>
