<svg width="14" height="14" viewBox="0 0 14 14" fill="none" xmlns="http://www.w3.org/2000/svg">
<path d="M13.125 6.125C13.6082 6.125 14 6.51675 14 7C14 7.43932 13.6762 7.80302 13.2543 7.86551L13.125 7.875H0.875C0.391751 7.875 0 7.48325 0 7C0 6.56068 0.323761 6.19698 0.745699 6.13449L0.875 6.125H13.125Z" fill="white"/>
<path d="M6.38177 0.256282C6.68931 -0.0512563 7.16882 -0.0820101 7.51075 0.16402L7.61921 0.256282L13.7442 6.38128C14.0517 6.68882 14.0825 7.16833 13.8365 7.51026L13.7442 7.61872L7.61921 13.7437C7.2775 14.0854 6.72348 14.0854 6.38177 13.7437C6.07423 13.4362 6.04348 12.9567 6.28951 12.6147L6.38177 12.5063L11.8874 6.99913L6.38177 1.49372C6.07423 1.18618 6.04348 0.706671 6.28951 0.364739L6.38177 0.256282Z" fill="white"/>
</svg>
