<svg width="16" height="21" viewBox="0 0 16 21" fill="none" xmlns="http://www.w3.org/2000/svg">
<path fill-rule="evenodd" clip-rule="evenodd" d="M3 0H13C14.6569 0 16 1.34315 16 3V19C16 19.8134 15.0806 20.2865 14.4188 19.8137L8 15.228L1.58124 19.8137C0.950887 20.264 0.0869751 19.8563 0.00612714 19.1138L0 19V3C0 1.34315 1.34315 0 3 0ZM13.1166 2.00673L13 2H3C2.44772 2 2 2.44772 2 3V17.057L7.41876 13.1863C7.73169 12.9627 8.14132 12.9404 8.47359 13.1192L8.58124 13.1863L14 17.057V3C14 2.48716 13.614 2.06449 13.1166 2.00673Z" fill="#5920BC"/>
</svg>
