<svg width="20" height="20" viewBox="0 0 20 20" fill="none" xmlns="http://www.w3.org/2000/svg">
<path d="M5 12.3076L7.5 12.3076" stroke="#5920BC" stroke-width="1.5" stroke-linecap="round" stroke-linejoin="round"/>
<path d="M5 15.3848L7.5 15.3848" stroke="#5920BC" stroke-width="1.5" stroke-linecap="round" stroke-linejoin="round"/>
<path fill-rule="evenodd" clip-rule="evenodd" d="M6.66667 0.019043C7.08088 0.019043 7.41667 0.354829 7.41667 0.769043V1.609C8.19753 1.55967 9.05628 1.53827 10 1.53827C10.9437 1.53827 11.8025 1.55967 12.5833 1.609V0.769043C12.5833 0.354829 12.9191 0.019043 13.3333 0.019043C13.7475 0.019043 14.0833 0.354829 14.0833 0.769043V1.75215C17.9562 2.27109 19.4412 3.85009 19.8622 7.71135C19.8885 7.95236 19.9106 8.20226 19.9289 8.46135C19.946 8.70291 19.9598 8.95245 19.9705 9.21022C19.9907 9.69962 20 10.2187 20 10.769C20 11.3192 19.9908 11.8381 19.9705 12.3274C19.9598 12.5853 19.946 12.835 19.9289 13.0767C19.9107 13.3348 19.8887 13.5837 19.8625 13.8238C19.413 17.9534 17.7475 19.4737 13.2479 19.8785C13.0069 19.9002 12.7576 19.9187 12.5 19.9342C12.2574 19.9488 12.0073 19.9608 11.7496 19.9703C11.2016 19.9906 10.6191 19.9998 10 19.9998C1.765 19.9998 0 18.3706 0 10.769C0 10.2187 0.00925232 9.69962 0.0295424 9.21022C0.0402293 8.95245 0.0539782 8.70291 0.0710503 8.46135C0.0893617 8.20226 0.111496 7.95236 0.137775 7.71135C0.558801 3.85009 2.04375 2.27109 5.91667 1.75215V0.769043C5.91667 0.354829 6.25245 0.019043 6.66667 0.019043ZM5.91667 3.26724C4.69766 3.44636 3.8658 3.73203 3.27875 4.1293C2.45712 4.68531 1.89646 5.63102 1.64747 7.71135H18.3525C18.1035 5.63102 17.5429 4.68531 16.7212 4.1293C16.1342 3.73203 15.3023 3.44636 14.0833 3.26724V3.84597C14.0833 4.26018 13.7475 4.59597 13.3333 4.59597C12.9191 4.59597 12.5833 4.26018 12.5833 3.84597V3.1132C11.8343 3.06305 10.9789 3.03827 10 3.03827C9.0211 3.03827 8.16565 3.06305 7.41667 3.1132V3.84597C7.41667 4.26018 7.08088 4.59597 6.66667 4.59597C6.25245 4.59597 5.91667 4.26018 5.91667 3.84597V3.26724ZM17.92 13.8693C18.069 13.8511 18.2137 13.837 18.3524 13.8262C18.1372 15.6208 17.6906 16.5606 17.0707 17.1328C16.4147 17.7383 15.3132 18.1703 13.2609 18.3706C13.2703 18.2833 13.2814 18.1937 13.2945 18.1024C13.4391 17.0943 13.8138 15.9616 14.6754 15.1663C15.5467 14.362 16.8005 14.0061 17.92 13.8693ZM11.8097 17.8894C11.7807 18.0916 11.7599 18.286 11.7454 18.4694C11.2056 18.4902 10.625 18.4998 10 18.4998C7.97259 18.4998 6.43841 18.3978 5.2648 18.1571C4.102 17.9185 3.39646 17.564 2.9293 17.1328C1.99099 16.2667 1.5 14.6118 1.5 10.769C1.5 10.2109 1.50982 9.69279 1.53085 9.21135H18.4691C18.4902 9.69279 18.5 10.2109 18.5 10.769C18.5 11.3226 18.4903 11.8369 18.4697 12.315C18.2416 12.3281 17.9958 12.3489 17.7381 12.3804C16.4974 12.532 14.87 12.9453 13.658 14.0641C12.4362 15.1918 11.9776 16.7186 11.8097 17.8894Z" fill="#5920BC"/>
</svg>
