<svg width="14" height="14" viewBox="0 0 14 14" fill="none" xmlns="http://www.w3.org/2000/svg">
<path d="M0.875488 6.125C0.392239 6.125 0.000489235 6.51675 0.000489235 7C0.000489235 7.43932 0.324249 7.80302 0.746187 7.86551L0.875488 7.875H13.1255C13.6087 7.875 14.0005 7.48325 14.0005 7C14.0005 6.56068 13.6767 6.19698 13.2548 6.13449L13.1255 6.125H0.875488Z" fill="#5920BC"/>
<path d="M7.61872 0.256282C7.31118 -0.0512563 6.83167 -0.0820101 6.48974 0.16402L6.38128 0.256282L0.256281 6.38128C-0.0512567 6.68882 -0.0820103 7.16833 0.16402 7.51026L0.256281 7.61872L6.38128 13.7437C6.72299 14.0854 7.27701 14.0854 7.61872 13.7437C7.92626 13.4362 7.95701 12.9567 7.71098 12.6147L7.61872 12.5063L2.11313 6.99913L7.61872 1.49372C7.92626 1.18618 7.95701 0.706671 7.71098 0.364739L7.61872 0.256282Z" fill="#5920BC"/>
</svg>
